G04 #@! TF.FileFunction,Soldermask,Bot*
%FSLAX46Y46*%
G04 Gerber Fmt 4.6, Leading zero omitted, Abs format (unit mm)*
G04 Created by KiCad (PCBNEW 4.0.6) date 05/17/17 20:45:08*
%MOMM*%
%LPD*%
G01*
G04 APERTURE LIST*
%ADD10C,0.101600*%
%ADD11C,3.600000*%
%ADD12R,2.100000X2.100000*%
%ADD13O,2.100000X2.100000*%
%ADD14C,1.924000*%
G04 APERTURE END LIST*
D10*
D11*
X65659000Y-38989000D03*
X43434000Y-71755000D03*
X80518000Y-71755000D03*
D12*
X44831000Y-48133000D03*
D13*
X44831000Y-50673000D03*
X44831000Y-53213000D03*
X44831000Y-55753000D03*
X44831000Y-58293000D03*
D14*
X48641000Y-37719000D03*
X48641000Y-40259000D03*
X48641000Y-42799000D03*
X48641000Y-45339000D03*
X48641000Y-47879000D03*
X48641000Y-50419000D03*
X48641000Y-52959000D03*
X48641000Y-55499000D03*
X48641000Y-58039000D03*
X48641000Y-60579000D03*
X48641000Y-63119000D03*
X48641000Y-65659000D03*
X48641000Y-68199000D03*
X48641000Y-70739000D03*
X48641000Y-73279000D03*
X76581000Y-73279000D03*
X76581000Y-70739000D03*
X76581000Y-68199000D03*
X76581000Y-65659000D03*
X76581000Y-63119000D03*
X76581000Y-60579000D03*
X76581000Y-58039000D03*
X76581000Y-55499000D03*
X76581000Y-52959000D03*
X76581000Y-50419000D03*
X76581000Y-47879000D03*
X76581000Y-45339000D03*
X76581000Y-42799000D03*
X76581000Y-40259000D03*
X76581000Y-37719000D03*
D12*
X81280000Y-43434000D03*
D13*
X81280000Y-45974000D03*
X81280000Y-48514000D03*
X81280000Y-51054000D03*
X81280000Y-53594000D03*
X81280000Y-56134000D03*
X81280000Y-58674000D03*
X81280000Y-61214000D03*
X81280000Y-63754000D03*
X81280000Y-66294000D03*
D12*
X53721000Y-73279000D03*
D13*
X56261000Y-73279000D03*
X58801000Y-73279000D03*
X61341000Y-73279000D03*
X63881000Y-73279000D03*
X66421000Y-73279000D03*
X68961000Y-73279000D03*
X71501000Y-73279000D03*
D11*
X43434000Y-38481000D03*
D12*
X81915000Y-35941000D03*
M02*
