G04 #@! TF.FileFunction,Legend,Top*
%FSLAX46Y46*%
G04 Gerber Fmt 4.6, Leading zero omitted, Abs format (unit mm)*
G04 Created by KiCad (PCBNEW 4.0.6) date 05/17/17 20:45:08*
%MOMM*%
%LPD*%
G01*
G04 APERTURE LIST*
%ADD10C,0.101600*%
%ADD11C,0.300000*%
%ADD12C,0.120000*%
%ADD13C,0.150000*%
G04 APERTURE END LIST*
D10*
D11*
X78299571Y-58796427D02*
X79799571Y-58296427D01*
X78299571Y-57796427D01*
X79728143Y-57367856D02*
X79799571Y-57153570D01*
X79799571Y-56796427D01*
X79728143Y-56653570D01*
X79656714Y-56582141D01*
X79513857Y-56510713D01*
X79371000Y-56510713D01*
X79228143Y-56582141D01*
X79156714Y-56653570D01*
X79085286Y-56796427D01*
X79013857Y-57082141D01*
X78942429Y-57224999D01*
X78871000Y-57296427D01*
X78728143Y-57367856D01*
X78585286Y-57367856D01*
X78442429Y-57296427D01*
X78371000Y-57224999D01*
X78299571Y-57082141D01*
X78299571Y-56724999D01*
X78371000Y-56510713D01*
X79799571Y-55082142D02*
X79799571Y-55939285D01*
X79799571Y-55510713D02*
X78299571Y-55510713D01*
X78513857Y-55653570D01*
X78656714Y-55796428D01*
X78728143Y-55939285D01*
X78299571Y-54153571D02*
X78299571Y-54010714D01*
X78371000Y-53867857D01*
X78442429Y-53796428D01*
X78585286Y-53724999D01*
X78871000Y-53653571D01*
X79228143Y-53653571D01*
X79513857Y-53724999D01*
X79656714Y-53796428D01*
X79728143Y-53867857D01*
X79799571Y-54010714D01*
X79799571Y-54153571D01*
X79728143Y-54296428D01*
X79656714Y-54367857D01*
X79513857Y-54439285D01*
X79228143Y-54510714D01*
X78871000Y-54510714D01*
X78585286Y-54439285D01*
X78442429Y-54367857D01*
X78371000Y-54296428D01*
X78299571Y-54153571D01*
X78299571Y-52296428D02*
X78299571Y-53010714D01*
X79013857Y-53082143D01*
X78942429Y-53010714D01*
X78871000Y-52867857D01*
X78871000Y-52510714D01*
X78942429Y-52367857D01*
X79013857Y-52296428D01*
X79156714Y-52225000D01*
X79513857Y-52225000D01*
X79656714Y-52296428D01*
X79728143Y-52367857D01*
X79799571Y-52510714D01*
X79799571Y-52867857D01*
X79728143Y-53010714D01*
X79656714Y-53082143D01*
X78299571Y-51725000D02*
X78299571Y-50796429D01*
X78871000Y-51296429D01*
X78871000Y-51082143D01*
X78942429Y-50939286D01*
X79013857Y-50867857D01*
X79156714Y-50796429D01*
X79513857Y-50796429D01*
X79656714Y-50867857D01*
X79728143Y-50939286D01*
X79799571Y-51082143D01*
X79799571Y-51510715D01*
X79728143Y-51653572D01*
X79656714Y-51725000D01*
X79013857Y-49653572D02*
X79085286Y-49439286D01*
X79156714Y-49367858D01*
X79299571Y-49296429D01*
X79513857Y-49296429D01*
X79656714Y-49367858D01*
X79728143Y-49439286D01*
X79799571Y-49582144D01*
X79799571Y-50153572D01*
X78299571Y-50153572D01*
X78299571Y-49653572D01*
X78371000Y-49510715D01*
X78442429Y-49439286D01*
X78585286Y-49367858D01*
X78728143Y-49367858D01*
X78871000Y-49439286D01*
X78942429Y-49510715D01*
X79013857Y-49653572D01*
X79013857Y-50153572D01*
X46232000Y-50994714D02*
X46232000Y-51709000D01*
X45803429Y-50851857D02*
X47303429Y-51351857D01*
X45803429Y-51851857D01*
X45803429Y-52351857D02*
X47303429Y-52351857D01*
X46232000Y-52851857D01*
X47303429Y-53351857D01*
X45803429Y-53351857D01*
X45803429Y-54066143D02*
X47303429Y-54066143D01*
X47303429Y-54637571D01*
X47232000Y-54780429D01*
X47160571Y-54851857D01*
X47017714Y-54923286D01*
X46803429Y-54923286D01*
X46660571Y-54851857D01*
X46589143Y-54780429D01*
X46517714Y-54637571D01*
X46517714Y-54066143D01*
X57825287Y-71163571D02*
X57825287Y-69663571D01*
X58325287Y-70735000D01*
X58825287Y-69663571D01*
X58825287Y-71163571D01*
X60039573Y-70377857D02*
X59539573Y-70377857D01*
X59539573Y-71163571D02*
X59539573Y-69663571D01*
X60253859Y-69663571D01*
X61682430Y-71163571D02*
X61182430Y-70449286D01*
X60825287Y-71163571D02*
X60825287Y-69663571D01*
X61396715Y-69663571D01*
X61539573Y-69735000D01*
X61611001Y-69806429D01*
X61682430Y-69949286D01*
X61682430Y-70163571D01*
X61611001Y-70306429D01*
X61539573Y-70377857D01*
X61396715Y-70449286D01*
X60825287Y-70449286D01*
X63182430Y-71020714D02*
X63111001Y-71092143D01*
X62896715Y-71163571D01*
X62753858Y-71163571D01*
X62539573Y-71092143D01*
X62396715Y-70949286D01*
X62325287Y-70806429D01*
X62253858Y-70520714D01*
X62253858Y-70306429D01*
X62325287Y-70020714D01*
X62396715Y-69877857D01*
X62539573Y-69735000D01*
X62753858Y-69663571D01*
X62896715Y-69663571D01*
X63111001Y-69735000D01*
X63182430Y-69806429D01*
X64539573Y-69663571D02*
X63825287Y-69663571D01*
X63753858Y-70377857D01*
X63825287Y-70306429D01*
X63968144Y-70235000D01*
X64325287Y-70235000D01*
X64468144Y-70306429D01*
X64539573Y-70377857D01*
X64611001Y-70520714D01*
X64611001Y-70877857D01*
X64539573Y-71020714D01*
X64468144Y-71092143D01*
X64325287Y-71163571D01*
X63968144Y-71163571D01*
X63825287Y-71092143D01*
X63753858Y-71020714D01*
X65182429Y-69806429D02*
X65253858Y-69735000D01*
X65396715Y-69663571D01*
X65753858Y-69663571D01*
X65896715Y-69735000D01*
X65968144Y-69806429D01*
X66039572Y-69949286D01*
X66039572Y-70092143D01*
X65968144Y-70306429D01*
X65111001Y-71163571D01*
X66039572Y-71163571D01*
X66611000Y-69806429D02*
X66682429Y-69735000D01*
X66825286Y-69663571D01*
X67182429Y-69663571D01*
X67325286Y-69735000D01*
X67396715Y-69806429D01*
X67468143Y-69949286D01*
X67468143Y-70092143D01*
X67396715Y-70306429D01*
X66539572Y-71163571D01*
X67468143Y-71163571D01*
D12*
X43371000Y-46803000D02*
X43371000Y-49403000D01*
X43371000Y-49403000D02*
X34741000Y-49403000D01*
X34741000Y-49403000D02*
X34741000Y-46803000D01*
X34741000Y-46803000D02*
X43371000Y-46803000D01*
X43801000Y-47753000D02*
X43371000Y-47753000D01*
X43801000Y-48513000D02*
X43371000Y-48513000D01*
X43371000Y-46983000D02*
X34741000Y-46983000D01*
X43371000Y-47103000D02*
X34741000Y-47103000D01*
X43371000Y-47223000D02*
X34741000Y-47223000D01*
X43371000Y-47343000D02*
X34741000Y-47343000D01*
X43371000Y-47463000D02*
X34741000Y-47463000D01*
X43371000Y-47583000D02*
X34741000Y-47583000D01*
X43371000Y-47703000D02*
X34741000Y-47703000D01*
X43371000Y-47823000D02*
X34741000Y-47823000D01*
X43371000Y-47943000D02*
X34741000Y-47943000D01*
X43371000Y-48063000D02*
X34741000Y-48063000D01*
X43371000Y-48183000D02*
X34741000Y-48183000D01*
X43371000Y-48303000D02*
X34741000Y-48303000D01*
X43371000Y-48423000D02*
X34741000Y-48423000D01*
X43371000Y-48543000D02*
X34741000Y-48543000D01*
X43371000Y-48663000D02*
X34741000Y-48663000D01*
X43371000Y-48783000D02*
X34741000Y-48783000D01*
X43371000Y-48903000D02*
X34741000Y-48903000D01*
X43371000Y-49023000D02*
X34741000Y-49023000D01*
X43371000Y-49143000D02*
X34741000Y-49143000D01*
X43371000Y-49263000D02*
X34741000Y-49263000D01*
X43371000Y-49383000D02*
X34741000Y-49383000D01*
X43371000Y-49503000D02*
X34741000Y-49503000D01*
X43371000Y-49403000D02*
X43371000Y-51943000D01*
X43371000Y-51943000D02*
X34741000Y-51943000D01*
X34741000Y-51943000D02*
X34741000Y-49403000D01*
X34741000Y-49403000D02*
X43371000Y-49403000D01*
X43801000Y-50293000D02*
X43371000Y-50293000D01*
X43801000Y-51053000D02*
X43371000Y-51053000D01*
X43371000Y-51943000D02*
X43371000Y-54483000D01*
X43371000Y-54483000D02*
X34741000Y-54483000D01*
X34741000Y-54483000D02*
X34741000Y-51943000D01*
X34741000Y-51943000D02*
X43371000Y-51943000D01*
X43801000Y-52833000D02*
X43371000Y-52833000D01*
X43801000Y-53593000D02*
X43371000Y-53593000D01*
X43371000Y-54483000D02*
X43371000Y-57023000D01*
X43371000Y-57023000D02*
X34741000Y-57023000D01*
X34741000Y-57023000D02*
X34741000Y-54483000D01*
X34741000Y-54483000D02*
X43371000Y-54483000D01*
X43801000Y-55373000D02*
X43371000Y-55373000D01*
X43801000Y-56133000D02*
X43371000Y-56133000D01*
X43371000Y-57023000D02*
X43371000Y-59623000D01*
X43371000Y-59623000D02*
X34741000Y-59623000D01*
X34741000Y-59623000D02*
X34741000Y-57023000D01*
X34741000Y-57023000D02*
X43371000Y-57023000D01*
X43801000Y-57913000D02*
X43371000Y-57913000D01*
X43801000Y-58673000D02*
X43371000Y-58673000D01*
X44831000Y-46863000D02*
X46101000Y-46863000D01*
X46101000Y-46863000D02*
X46101000Y-48133000D01*
D13*
X77107051Y-82169000D02*
G75*
G03X77107051Y-82169000I-1796051J0D01*
G01*
X51707051Y-82169000D02*
G75*
G03X51707051Y-82169000I-1796051J0D01*
G01*
X51707051Y-30099000D02*
G75*
G03X51707051Y-30099000I-1796051J0D01*
G01*
X77107051Y-30099000D02*
G75*
G03X77107051Y-30099000I-1796051J0D01*
G01*
X77861000Y-27539000D02*
X47861000Y-27539000D01*
X47861000Y-27539000D02*
X47361000Y-27539000D01*
X47361000Y-27539000D02*
X47361000Y-84539000D01*
X47361000Y-84539000D02*
X77861000Y-84539000D01*
X77861000Y-84539000D02*
X77861000Y-27539000D01*
D12*
X82740000Y-42104000D02*
X82740000Y-44704000D01*
X82740000Y-44704000D02*
X91370000Y-44704000D01*
X91370000Y-44704000D02*
X91370000Y-42104000D01*
X91370000Y-42104000D02*
X82740000Y-42104000D01*
X82310000Y-43054000D02*
X82740000Y-43054000D01*
X82310000Y-43814000D02*
X82740000Y-43814000D01*
X82740000Y-42284000D02*
X91370000Y-42284000D01*
X82740000Y-42404000D02*
X91370000Y-42404000D01*
X82740000Y-42524000D02*
X91370000Y-42524000D01*
X82740000Y-42644000D02*
X91370000Y-42644000D01*
X82740000Y-42764000D02*
X91370000Y-42764000D01*
X82740000Y-42884000D02*
X91370000Y-42884000D01*
X82740000Y-43004000D02*
X91370000Y-43004000D01*
X82740000Y-43124000D02*
X91370000Y-43124000D01*
X82740000Y-43244000D02*
X91370000Y-43244000D01*
X82740000Y-43364000D02*
X91370000Y-43364000D01*
X82740000Y-43484000D02*
X91370000Y-43484000D01*
X82740000Y-43604000D02*
X91370000Y-43604000D01*
X82740000Y-43724000D02*
X91370000Y-43724000D01*
X82740000Y-43844000D02*
X91370000Y-43844000D01*
X82740000Y-43964000D02*
X91370000Y-43964000D01*
X82740000Y-44084000D02*
X91370000Y-44084000D01*
X82740000Y-44204000D02*
X91370000Y-44204000D01*
X82740000Y-44324000D02*
X91370000Y-44324000D01*
X82740000Y-44444000D02*
X91370000Y-44444000D01*
X82740000Y-44564000D02*
X91370000Y-44564000D01*
X82740000Y-44684000D02*
X91370000Y-44684000D01*
X82740000Y-44804000D02*
X91370000Y-44804000D01*
X82740000Y-44704000D02*
X82740000Y-47244000D01*
X82740000Y-47244000D02*
X91370000Y-47244000D01*
X91370000Y-47244000D02*
X91370000Y-44704000D01*
X91370000Y-44704000D02*
X82740000Y-44704000D01*
X82310000Y-45594000D02*
X82740000Y-45594000D01*
X82310000Y-46354000D02*
X82740000Y-46354000D01*
X82740000Y-47244000D02*
X82740000Y-49784000D01*
X82740000Y-49784000D02*
X91370000Y-49784000D01*
X91370000Y-49784000D02*
X91370000Y-47244000D01*
X91370000Y-47244000D02*
X82740000Y-47244000D01*
X82310000Y-48134000D02*
X82740000Y-48134000D01*
X82310000Y-48894000D02*
X82740000Y-48894000D01*
X82740000Y-49784000D02*
X82740000Y-52324000D01*
X82740000Y-52324000D02*
X91370000Y-52324000D01*
X91370000Y-52324000D02*
X91370000Y-49784000D01*
X91370000Y-49784000D02*
X82740000Y-49784000D01*
X82310000Y-50674000D02*
X82740000Y-50674000D01*
X82310000Y-51434000D02*
X82740000Y-51434000D01*
X82740000Y-52324000D02*
X82740000Y-54864000D01*
X82740000Y-54864000D02*
X91370000Y-54864000D01*
X91370000Y-54864000D02*
X91370000Y-52324000D01*
X91370000Y-52324000D02*
X82740000Y-52324000D01*
X82310000Y-53214000D02*
X82740000Y-53214000D01*
X82310000Y-53974000D02*
X82740000Y-53974000D01*
X82740000Y-54864000D02*
X82740000Y-57404000D01*
X82740000Y-57404000D02*
X91370000Y-57404000D01*
X91370000Y-57404000D02*
X91370000Y-54864000D01*
X91370000Y-54864000D02*
X82740000Y-54864000D01*
X82310000Y-55754000D02*
X82740000Y-55754000D01*
X82310000Y-56514000D02*
X82740000Y-56514000D01*
X82740000Y-57404000D02*
X82740000Y-59944000D01*
X82740000Y-59944000D02*
X91370000Y-59944000D01*
X91370000Y-59944000D02*
X91370000Y-57404000D01*
X91370000Y-57404000D02*
X82740000Y-57404000D01*
X82310000Y-58294000D02*
X82740000Y-58294000D01*
X82310000Y-59054000D02*
X82740000Y-59054000D01*
X82740000Y-59944000D02*
X82740000Y-62484000D01*
X82740000Y-62484000D02*
X91370000Y-62484000D01*
X91370000Y-62484000D02*
X91370000Y-59944000D01*
X91370000Y-59944000D02*
X82740000Y-59944000D01*
X82310000Y-60834000D02*
X82740000Y-60834000D01*
X82310000Y-61594000D02*
X82740000Y-61594000D01*
X82740000Y-62484000D02*
X82740000Y-65024000D01*
X82740000Y-65024000D02*
X91370000Y-65024000D01*
X91370000Y-65024000D02*
X91370000Y-62484000D01*
X91370000Y-62484000D02*
X82740000Y-62484000D01*
X82310000Y-63374000D02*
X82740000Y-63374000D01*
X82310000Y-64134000D02*
X82740000Y-64134000D01*
X82740000Y-65024000D02*
X82740000Y-67624000D01*
X82740000Y-67624000D02*
X91370000Y-67624000D01*
X91370000Y-67624000D02*
X91370000Y-65024000D01*
X91370000Y-65024000D02*
X82740000Y-65024000D01*
X82310000Y-65914000D02*
X82740000Y-65914000D01*
X82310000Y-66674000D02*
X82740000Y-66674000D01*
X81280000Y-42164000D02*
X80010000Y-42164000D01*
X80010000Y-42164000D02*
X80010000Y-43434000D01*
X52391000Y-74739000D02*
X54991000Y-74739000D01*
X54991000Y-74739000D02*
X54991000Y-83369000D01*
X54991000Y-83369000D02*
X52391000Y-83369000D01*
X52391000Y-83369000D02*
X52391000Y-74739000D01*
X53341000Y-74309000D02*
X53341000Y-74739000D01*
X54101000Y-74309000D02*
X54101000Y-74739000D01*
X52571000Y-74739000D02*
X52571000Y-83369000D01*
X52691000Y-74739000D02*
X52691000Y-83369000D01*
X52811000Y-74739000D02*
X52811000Y-83369000D01*
X52931000Y-74739000D02*
X52931000Y-83369000D01*
X53051000Y-74739000D02*
X53051000Y-83369000D01*
X53171000Y-74739000D02*
X53171000Y-83369000D01*
X53291000Y-74739000D02*
X53291000Y-83369000D01*
X53411000Y-74739000D02*
X53411000Y-83369000D01*
X53531000Y-74739000D02*
X53531000Y-83369000D01*
X53651000Y-74739000D02*
X53651000Y-83369000D01*
X53771000Y-74739000D02*
X53771000Y-83369000D01*
X53891000Y-74739000D02*
X53891000Y-83369000D01*
X54011000Y-74739000D02*
X54011000Y-83369000D01*
X54131000Y-74739000D02*
X54131000Y-83369000D01*
X54251000Y-74739000D02*
X54251000Y-83369000D01*
X54371000Y-74739000D02*
X54371000Y-83369000D01*
X54491000Y-74739000D02*
X54491000Y-83369000D01*
X54611000Y-74739000D02*
X54611000Y-83369000D01*
X54731000Y-74739000D02*
X54731000Y-83369000D01*
X54851000Y-74739000D02*
X54851000Y-83369000D01*
X54971000Y-74739000D02*
X54971000Y-83369000D01*
X55091000Y-74739000D02*
X55091000Y-83369000D01*
X54991000Y-74739000D02*
X57531000Y-74739000D01*
X57531000Y-74739000D02*
X57531000Y-83369000D01*
X57531000Y-83369000D02*
X54991000Y-83369000D01*
X54991000Y-83369000D02*
X54991000Y-74739000D01*
X55881000Y-74309000D02*
X55881000Y-74739000D01*
X56641000Y-74309000D02*
X56641000Y-74739000D01*
X57531000Y-74739000D02*
X60071000Y-74739000D01*
X60071000Y-74739000D02*
X60071000Y-83369000D01*
X60071000Y-83369000D02*
X57531000Y-83369000D01*
X57531000Y-83369000D02*
X57531000Y-74739000D01*
X58421000Y-74309000D02*
X58421000Y-74739000D01*
X59181000Y-74309000D02*
X59181000Y-74739000D01*
X60071000Y-74739000D02*
X62611000Y-74739000D01*
X62611000Y-74739000D02*
X62611000Y-83369000D01*
X62611000Y-83369000D02*
X60071000Y-83369000D01*
X60071000Y-83369000D02*
X60071000Y-74739000D01*
X60961000Y-74309000D02*
X60961000Y-74739000D01*
X61721000Y-74309000D02*
X61721000Y-74739000D01*
X62611000Y-74739000D02*
X65151000Y-74739000D01*
X65151000Y-74739000D02*
X65151000Y-83369000D01*
X65151000Y-83369000D02*
X62611000Y-83369000D01*
X62611000Y-83369000D02*
X62611000Y-74739000D01*
X63501000Y-74309000D02*
X63501000Y-74739000D01*
X64261000Y-74309000D02*
X64261000Y-74739000D01*
X65151000Y-74739000D02*
X67691000Y-74739000D01*
X67691000Y-74739000D02*
X67691000Y-83369000D01*
X67691000Y-83369000D02*
X65151000Y-83369000D01*
X65151000Y-83369000D02*
X65151000Y-74739000D01*
X66041000Y-74309000D02*
X66041000Y-74739000D01*
X66801000Y-74309000D02*
X66801000Y-74739000D01*
X67691000Y-74739000D02*
X70231000Y-74739000D01*
X70231000Y-74739000D02*
X70231000Y-83369000D01*
X70231000Y-83369000D02*
X67691000Y-83369000D01*
X67691000Y-83369000D02*
X67691000Y-74739000D01*
X68581000Y-74309000D02*
X68581000Y-74739000D01*
X69341000Y-74309000D02*
X69341000Y-74739000D01*
X70231000Y-74739000D02*
X72831000Y-74739000D01*
X72831000Y-74739000D02*
X72831000Y-83369000D01*
X72831000Y-83369000D02*
X70231000Y-83369000D01*
X70231000Y-83369000D02*
X70231000Y-74739000D01*
X71121000Y-74309000D02*
X71121000Y-74739000D01*
X71881000Y-74309000D02*
X71881000Y-74739000D01*
X52451000Y-73279000D02*
X52451000Y-72009000D01*
X52451000Y-72009000D02*
X53721000Y-72009000D01*
X83245000Y-34481000D02*
X80585000Y-34481000D01*
X80585000Y-34481000D02*
X80585000Y-25851000D01*
X80585000Y-25851000D02*
X83245000Y-25851000D01*
X83245000Y-25851000D02*
X83245000Y-34481000D01*
X83245000Y-34481000D02*
X80645000Y-34481000D01*
X80645000Y-34481000D02*
X80645000Y-25851000D01*
X80645000Y-25851000D02*
X83245000Y-25851000D01*
X83245000Y-25851000D02*
X83245000Y-34481000D01*
X82295000Y-34911000D02*
X82295000Y-34481000D01*
X81535000Y-34911000D02*
X81535000Y-34481000D01*
X83065000Y-34481000D02*
X83065000Y-25851000D01*
X82945000Y-34481000D02*
X82945000Y-25851000D01*
X82825000Y-34481000D02*
X82825000Y-25851000D01*
X82705000Y-34481000D02*
X82705000Y-25851000D01*
X82585000Y-34481000D02*
X82585000Y-25851000D01*
X82465000Y-34481000D02*
X82465000Y-25851000D01*
X82345000Y-34481000D02*
X82345000Y-25851000D01*
X82225000Y-34481000D02*
X82225000Y-25851000D01*
X82105000Y-34481000D02*
X82105000Y-25851000D01*
X81985000Y-34481000D02*
X81985000Y-25851000D01*
X81865000Y-34481000D02*
X81865000Y-25851000D01*
X81745000Y-34481000D02*
X81745000Y-25851000D01*
X81625000Y-34481000D02*
X81625000Y-25851000D01*
X81505000Y-34481000D02*
X81505000Y-25851000D01*
X81385000Y-34481000D02*
X81385000Y-25851000D01*
X81265000Y-34481000D02*
X81265000Y-25851000D01*
X81145000Y-34481000D02*
X81145000Y-25851000D01*
X81025000Y-34481000D02*
X81025000Y-25851000D01*
X80905000Y-34481000D02*
X80905000Y-25851000D01*
X80785000Y-34481000D02*
X80785000Y-25851000D01*
X80665000Y-34481000D02*
X80665000Y-25851000D01*
X80545000Y-34481000D02*
X80545000Y-25851000D01*
X83185000Y-35941000D02*
X83185000Y-37211000D01*
X83185000Y-37211000D02*
X81915000Y-37211000D01*
D13*
X40117667Y-45315381D02*
X40117667Y-46029667D01*
X40070047Y-46172524D01*
X39974809Y-46267762D01*
X39831952Y-46315381D01*
X39736714Y-46315381D01*
X40498619Y-45315381D02*
X41117667Y-45315381D01*
X40784333Y-45696333D01*
X40927191Y-45696333D01*
X41022429Y-45743952D01*
X41070048Y-45791571D01*
X41117667Y-45886810D01*
X41117667Y-46124905D01*
X41070048Y-46220143D01*
X41022429Y-46267762D01*
X40927191Y-46315381D01*
X40641476Y-46315381D01*
X40546238Y-46267762D01*
X40498619Y-46220143D01*
X50085762Y-72731381D02*
X50419095Y-73731381D01*
X50752429Y-72731381D01*
X51085762Y-73731381D02*
X51085762Y-72731381D01*
X51561952Y-73731381D02*
X51561952Y-72731381D01*
X52133381Y-73731381D01*
X52133381Y-72731381D01*
X51442905Y-70239000D02*
X51347667Y-70191381D01*
X51204810Y-70191381D01*
X51061952Y-70239000D01*
X50966714Y-70334238D01*
X50919095Y-70429476D01*
X50871476Y-70619952D01*
X50871476Y-70762810D01*
X50919095Y-70953286D01*
X50966714Y-71048524D01*
X51061952Y-71143762D01*
X51204810Y-71191381D01*
X51300048Y-71191381D01*
X51442905Y-71143762D01*
X51490524Y-71096143D01*
X51490524Y-70762810D01*
X51300048Y-70762810D01*
X50633381Y-68651381D02*
X50300047Y-68175190D01*
X50061952Y-68651381D02*
X50061952Y-67651381D01*
X50442905Y-67651381D01*
X50538143Y-67699000D01*
X50585762Y-67746619D01*
X50633381Y-67841857D01*
X50633381Y-67984714D01*
X50585762Y-68079952D01*
X50538143Y-68127571D01*
X50442905Y-68175190D01*
X50061952Y-68175190D01*
X51014333Y-68603762D02*
X51157190Y-68651381D01*
X51395286Y-68651381D01*
X51490524Y-68603762D01*
X51538143Y-68556143D01*
X51585762Y-68460905D01*
X51585762Y-68365667D01*
X51538143Y-68270429D01*
X51490524Y-68222810D01*
X51395286Y-68175190D01*
X51204809Y-68127571D01*
X51109571Y-68079952D01*
X51061952Y-68032333D01*
X51014333Y-67937095D01*
X51014333Y-67841857D01*
X51061952Y-67746619D01*
X51109571Y-67699000D01*
X51204809Y-67651381D01*
X51442905Y-67651381D01*
X51585762Y-67699000D01*
X51871476Y-67651381D02*
X52442905Y-67651381D01*
X52157190Y-68651381D02*
X52157190Y-67651381D01*
X50442905Y-65587571D02*
X50776239Y-65587571D01*
X50919096Y-66111381D02*
X50442905Y-66111381D01*
X50442905Y-65111381D01*
X50919096Y-65111381D01*
X51347667Y-66111381D02*
X51347667Y-65111381D01*
X51919096Y-66111381D01*
X51919096Y-65111381D01*
X50419095Y-62571381D02*
X51038143Y-62571381D01*
X50704809Y-62952333D01*
X50847667Y-62952333D01*
X50942905Y-62999952D01*
X50990524Y-63047571D01*
X51038143Y-63142810D01*
X51038143Y-63380905D01*
X50990524Y-63476143D01*
X50942905Y-63523762D01*
X50847667Y-63571381D01*
X50561952Y-63571381D01*
X50466714Y-63523762D01*
X50419095Y-63476143D01*
X51323857Y-62571381D02*
X51657190Y-63571381D01*
X51990524Y-62571381D01*
X51442905Y-60079000D02*
X51347667Y-60031381D01*
X51204810Y-60031381D01*
X51061952Y-60079000D01*
X50966714Y-60174238D01*
X50919095Y-60269476D01*
X50871476Y-60459952D01*
X50871476Y-60602810D01*
X50919095Y-60793286D01*
X50966714Y-60888524D01*
X51061952Y-60983762D01*
X51204810Y-61031381D01*
X51300048Y-61031381D01*
X51442905Y-60983762D01*
X51490524Y-60936143D01*
X51490524Y-60602810D01*
X51300048Y-60602810D01*
X50395286Y-58443762D02*
X50538143Y-58491381D01*
X50776239Y-58491381D01*
X50871477Y-58443762D01*
X50919096Y-58396143D01*
X50966715Y-58300905D01*
X50966715Y-58205667D01*
X50919096Y-58110429D01*
X50871477Y-58062810D01*
X50776239Y-58015190D01*
X50585762Y-57967571D01*
X50490524Y-57919952D01*
X50442905Y-57872333D01*
X50395286Y-57777095D01*
X50395286Y-57681857D01*
X50442905Y-57586619D01*
X50490524Y-57539000D01*
X50585762Y-57491381D01*
X50823858Y-57491381D01*
X50966715Y-57539000D01*
X51395286Y-58491381D02*
X51395286Y-57491381D01*
X51966715Y-58491381D02*
X51538143Y-57919952D01*
X51966715Y-57491381D02*
X51395286Y-58062810D01*
X50371476Y-55903762D02*
X50514333Y-55951381D01*
X50752429Y-55951381D01*
X50847667Y-55903762D01*
X50895286Y-55856143D01*
X50942905Y-55760905D01*
X50942905Y-55665667D01*
X50895286Y-55570429D01*
X50847667Y-55522810D01*
X50752429Y-55475190D01*
X50561952Y-55427571D01*
X50466714Y-55379952D01*
X50419095Y-55332333D01*
X50371476Y-55237095D01*
X50371476Y-55141857D01*
X50419095Y-55046619D01*
X50466714Y-54999000D01*
X50561952Y-54951381D01*
X50800048Y-54951381D01*
X50942905Y-54999000D01*
X51561952Y-54951381D02*
X51752429Y-54951381D01*
X51847667Y-54999000D01*
X51942905Y-55094238D01*
X51990524Y-55284714D01*
X51990524Y-55618048D01*
X51942905Y-55808524D01*
X51847667Y-55903762D01*
X51752429Y-55951381D01*
X51561952Y-55951381D01*
X51466714Y-55903762D01*
X51371476Y-55808524D01*
X51323857Y-55618048D01*
X51323857Y-55284714D01*
X51371476Y-55094238D01*
X51466714Y-54999000D01*
X51561952Y-54951381D01*
X50395286Y-53363762D02*
X50538143Y-53411381D01*
X50776239Y-53411381D01*
X50871477Y-53363762D01*
X50919096Y-53316143D01*
X50966715Y-53220905D01*
X50966715Y-53125667D01*
X50919096Y-53030429D01*
X50871477Y-52982810D01*
X50776239Y-52935190D01*
X50585762Y-52887571D01*
X50490524Y-52839952D01*
X50442905Y-52792333D01*
X50395286Y-52697095D01*
X50395286Y-52601857D01*
X50442905Y-52506619D01*
X50490524Y-52459000D01*
X50585762Y-52411381D01*
X50823858Y-52411381D01*
X50966715Y-52459000D01*
X51966715Y-53316143D02*
X51919096Y-53363762D01*
X51776239Y-53411381D01*
X51681001Y-53411381D01*
X51538143Y-53363762D01*
X51442905Y-53268524D01*
X51395286Y-53173286D01*
X51347667Y-52982810D01*
X51347667Y-52839952D01*
X51395286Y-52649476D01*
X51442905Y-52554238D01*
X51538143Y-52459000D01*
X51681001Y-52411381D01*
X51776239Y-52411381D01*
X51919096Y-52459000D01*
X51966715Y-52506619D01*
X50419095Y-50823762D02*
X50561952Y-50871381D01*
X50800048Y-50871381D01*
X50895286Y-50823762D01*
X50942905Y-50776143D01*
X50990524Y-50680905D01*
X50990524Y-50585667D01*
X50942905Y-50490429D01*
X50895286Y-50442810D01*
X50800048Y-50395190D01*
X50609571Y-50347571D01*
X50514333Y-50299952D01*
X50466714Y-50252333D01*
X50419095Y-50157095D01*
X50419095Y-50061857D01*
X50466714Y-49966619D01*
X50514333Y-49919000D01*
X50609571Y-49871381D01*
X50847667Y-49871381D01*
X50990524Y-49919000D01*
X51942905Y-50871381D02*
X51371476Y-50871381D01*
X51657190Y-50871381D02*
X51657190Y-49871381D01*
X51561952Y-50014238D01*
X51466714Y-50109476D01*
X51371476Y-50157095D01*
X50419095Y-48283762D02*
X50561952Y-48331381D01*
X50800048Y-48331381D01*
X50895286Y-48283762D01*
X50942905Y-48236143D01*
X50990524Y-48140905D01*
X50990524Y-48045667D01*
X50942905Y-47950429D01*
X50895286Y-47902810D01*
X50800048Y-47855190D01*
X50609571Y-47807571D01*
X50514333Y-47759952D01*
X50466714Y-47712333D01*
X50419095Y-47617095D01*
X50419095Y-47521857D01*
X50466714Y-47426619D01*
X50514333Y-47379000D01*
X50609571Y-47331381D01*
X50847667Y-47331381D01*
X50990524Y-47379000D01*
X51371476Y-47426619D02*
X51419095Y-47379000D01*
X51514333Y-47331381D01*
X51752429Y-47331381D01*
X51847667Y-47379000D01*
X51895286Y-47426619D01*
X51942905Y-47521857D01*
X51942905Y-47617095D01*
X51895286Y-47759952D01*
X51323857Y-48331381D01*
X51942905Y-48331381D01*
X50419095Y-45743762D02*
X50561952Y-45791381D01*
X50800048Y-45791381D01*
X50895286Y-45743762D01*
X50942905Y-45696143D01*
X50990524Y-45600905D01*
X50990524Y-45505667D01*
X50942905Y-45410429D01*
X50895286Y-45362810D01*
X50800048Y-45315190D01*
X50609571Y-45267571D01*
X50514333Y-45219952D01*
X50466714Y-45172333D01*
X50419095Y-45077095D01*
X50419095Y-44981857D01*
X50466714Y-44886619D01*
X50514333Y-44839000D01*
X50609571Y-44791381D01*
X50847667Y-44791381D01*
X50990524Y-44839000D01*
X51323857Y-44791381D02*
X51942905Y-44791381D01*
X51609571Y-45172333D01*
X51752429Y-45172333D01*
X51847667Y-45219952D01*
X51895286Y-45267571D01*
X51942905Y-45362810D01*
X51942905Y-45600905D01*
X51895286Y-45696143D01*
X51847667Y-45743762D01*
X51752429Y-45791381D01*
X51466714Y-45791381D01*
X51371476Y-45743762D01*
X51323857Y-45696143D01*
X50323857Y-42251381D02*
X50657190Y-43251381D01*
X50990524Y-42251381D01*
X51323857Y-42251381D02*
X51323857Y-43060905D01*
X51371476Y-43156143D01*
X51419095Y-43203762D01*
X51514333Y-43251381D01*
X51704810Y-43251381D01*
X51800048Y-43203762D01*
X51847667Y-43156143D01*
X51895286Y-43060905D01*
X51895286Y-42251381D01*
X51442905Y-39759000D02*
X51347667Y-39711381D01*
X51204810Y-39711381D01*
X51061952Y-39759000D01*
X50966714Y-39854238D01*
X50919095Y-39949476D01*
X50871476Y-40139952D01*
X50871476Y-40282810D01*
X50919095Y-40473286D01*
X50966714Y-40568524D01*
X51061952Y-40663762D01*
X51204810Y-40711381D01*
X51300048Y-40711381D01*
X51442905Y-40663762D01*
X51490524Y-40616143D01*
X51490524Y-40282810D01*
X51300048Y-40282810D01*
X50466714Y-37885667D02*
X50942905Y-37885667D01*
X50371476Y-38171381D02*
X50704809Y-37171381D01*
X51038143Y-38171381D01*
X51561952Y-37171381D02*
X51657191Y-37171381D01*
X51752429Y-37219000D01*
X51800048Y-37266619D01*
X51847667Y-37361857D01*
X51895286Y-37552333D01*
X51895286Y-37790429D01*
X51847667Y-37980905D01*
X51800048Y-38076143D01*
X51752429Y-38123762D01*
X51657191Y-38171381D01*
X51561952Y-38171381D01*
X51466714Y-38123762D01*
X51419095Y-38076143D01*
X51371476Y-37980905D01*
X51323857Y-37790429D01*
X51323857Y-37552333D01*
X51371476Y-37361857D01*
X51419095Y-37266619D01*
X51466714Y-37219000D01*
X51561952Y-37171381D01*
X73279095Y-72731381D02*
X73898143Y-72731381D01*
X73564809Y-73112333D01*
X73707667Y-73112333D01*
X73802905Y-73159952D01*
X73850524Y-73207571D01*
X73898143Y-73302810D01*
X73898143Y-73540905D01*
X73850524Y-73636143D01*
X73802905Y-73683762D01*
X73707667Y-73731381D01*
X73421952Y-73731381D01*
X73326714Y-73683762D01*
X73279095Y-73636143D01*
X74183857Y-72731381D02*
X74517190Y-73731381D01*
X74850524Y-72731381D01*
X74302905Y-70239000D02*
X74207667Y-70191381D01*
X74064810Y-70191381D01*
X73921952Y-70239000D01*
X73826714Y-70334238D01*
X73779095Y-70429476D01*
X73731476Y-70619952D01*
X73731476Y-70762810D01*
X73779095Y-70953286D01*
X73826714Y-71048524D01*
X73921952Y-71143762D01*
X74064810Y-71191381D01*
X74160048Y-71191381D01*
X74302905Y-71143762D01*
X74350524Y-71096143D01*
X74350524Y-70762810D01*
X74160048Y-70762810D01*
X73279095Y-67651381D02*
X73850524Y-67651381D01*
X73564809Y-68651381D02*
X73564809Y-67651381D01*
X74088619Y-67651381D02*
X74755286Y-68651381D01*
X74755286Y-67651381D02*
X74088619Y-68651381D01*
X73874334Y-66111381D02*
X73541000Y-65635190D01*
X73302905Y-66111381D02*
X73302905Y-65111381D01*
X73683858Y-65111381D01*
X73779096Y-65159000D01*
X73826715Y-65206619D01*
X73874334Y-65301857D01*
X73874334Y-65444714D01*
X73826715Y-65539952D01*
X73779096Y-65587571D01*
X73683858Y-65635190D01*
X73302905Y-65635190D01*
X74207667Y-65111381D02*
X74874334Y-66111381D01*
X74874334Y-65111381D02*
X74207667Y-66111381D01*
X73302905Y-63571381D02*
X73302905Y-62571381D01*
X73541000Y-62571381D01*
X73683858Y-62619000D01*
X73779096Y-62714238D01*
X73826715Y-62809476D01*
X73874334Y-62999952D01*
X73874334Y-63142810D01*
X73826715Y-63333286D01*
X73779096Y-63428524D01*
X73683858Y-63523762D01*
X73541000Y-63571381D01*
X73302905Y-63571381D01*
X74445762Y-62999952D02*
X74350524Y-62952333D01*
X74302905Y-62904714D01*
X74255286Y-62809476D01*
X74255286Y-62761857D01*
X74302905Y-62666619D01*
X74350524Y-62619000D01*
X74445762Y-62571381D01*
X74636239Y-62571381D01*
X74731477Y-62619000D01*
X74779096Y-62666619D01*
X74826715Y-62761857D01*
X74826715Y-62809476D01*
X74779096Y-62904714D01*
X74731477Y-62952333D01*
X74636239Y-62999952D01*
X74445762Y-62999952D01*
X74350524Y-63047571D01*
X74302905Y-63095190D01*
X74255286Y-63190429D01*
X74255286Y-63380905D01*
X74302905Y-63476143D01*
X74350524Y-63523762D01*
X74445762Y-63571381D01*
X74636239Y-63571381D01*
X74731477Y-63523762D01*
X74779096Y-63476143D01*
X74826715Y-63380905D01*
X74826715Y-63190429D01*
X74779096Y-63095190D01*
X74731477Y-63047571D01*
X74636239Y-62999952D01*
X73302905Y-61031381D02*
X73302905Y-60031381D01*
X73541000Y-60031381D01*
X73683858Y-60079000D01*
X73779096Y-60174238D01*
X73826715Y-60269476D01*
X73874334Y-60459952D01*
X73874334Y-60602810D01*
X73826715Y-60793286D01*
X73779096Y-60888524D01*
X73683858Y-60983762D01*
X73541000Y-61031381D01*
X73302905Y-61031381D01*
X74207667Y-60031381D02*
X74874334Y-60031381D01*
X74445762Y-61031381D01*
X73302905Y-58491381D02*
X73302905Y-57491381D01*
X73541000Y-57491381D01*
X73683858Y-57539000D01*
X73779096Y-57634238D01*
X73826715Y-57729476D01*
X73874334Y-57919952D01*
X73874334Y-58062810D01*
X73826715Y-58253286D01*
X73779096Y-58348524D01*
X73683858Y-58443762D01*
X73541000Y-58491381D01*
X73302905Y-58491381D01*
X74731477Y-57491381D02*
X74541000Y-57491381D01*
X74445762Y-57539000D01*
X74398143Y-57586619D01*
X74302905Y-57729476D01*
X74255286Y-57919952D01*
X74255286Y-58300905D01*
X74302905Y-58396143D01*
X74350524Y-58443762D01*
X74445762Y-58491381D01*
X74636239Y-58491381D01*
X74731477Y-58443762D01*
X74779096Y-58396143D01*
X74826715Y-58300905D01*
X74826715Y-58062810D01*
X74779096Y-57967571D01*
X74731477Y-57919952D01*
X74636239Y-57872333D01*
X74445762Y-57872333D01*
X74350524Y-57919952D01*
X74302905Y-57967571D01*
X74255286Y-58062810D01*
X73302905Y-55951381D02*
X73302905Y-54951381D01*
X73541000Y-54951381D01*
X73683858Y-54999000D01*
X73779096Y-55094238D01*
X73826715Y-55189476D01*
X73874334Y-55379952D01*
X73874334Y-55522810D01*
X73826715Y-55713286D01*
X73779096Y-55808524D01*
X73683858Y-55903762D01*
X73541000Y-55951381D01*
X73302905Y-55951381D01*
X74779096Y-54951381D02*
X74302905Y-54951381D01*
X74255286Y-55427571D01*
X74302905Y-55379952D01*
X74398143Y-55332333D01*
X74636239Y-55332333D01*
X74731477Y-55379952D01*
X74779096Y-55427571D01*
X74826715Y-55522810D01*
X74826715Y-55760905D01*
X74779096Y-55856143D01*
X74731477Y-55903762D01*
X74636239Y-55951381D01*
X74398143Y-55951381D01*
X74302905Y-55903762D01*
X74255286Y-55856143D01*
X74302905Y-52459000D02*
X74207667Y-52411381D01*
X74064810Y-52411381D01*
X73921952Y-52459000D01*
X73826714Y-52554238D01*
X73779095Y-52649476D01*
X73731476Y-52839952D01*
X73731476Y-52982810D01*
X73779095Y-53173286D01*
X73826714Y-53268524D01*
X73921952Y-53363762D01*
X74064810Y-53411381D01*
X74160048Y-53411381D01*
X74302905Y-53363762D01*
X74350524Y-53316143D01*
X74350524Y-52982810D01*
X74160048Y-52982810D01*
X73279095Y-49871381D02*
X73898143Y-49871381D01*
X73564809Y-50252333D01*
X73707667Y-50252333D01*
X73802905Y-50299952D01*
X73850524Y-50347571D01*
X73898143Y-50442810D01*
X73898143Y-50680905D01*
X73850524Y-50776143D01*
X73802905Y-50823762D01*
X73707667Y-50871381D01*
X73421952Y-50871381D01*
X73326714Y-50823762D01*
X73279095Y-50776143D01*
X74183857Y-49871381D02*
X74517190Y-50871381D01*
X74850524Y-49871381D01*
X73302905Y-48331381D02*
X73302905Y-47331381D01*
X73541000Y-47331381D01*
X73683858Y-47379000D01*
X73779096Y-47474238D01*
X73826715Y-47569476D01*
X73874334Y-47759952D01*
X73874334Y-47902810D01*
X73826715Y-48093286D01*
X73779096Y-48188524D01*
X73683858Y-48283762D01*
X73541000Y-48331381D01*
X73302905Y-48331381D01*
X74731477Y-47664714D02*
X74731477Y-48331381D01*
X74493381Y-47283762D02*
X74255286Y-47998048D01*
X74874334Y-47998048D01*
X73302905Y-45791381D02*
X73302905Y-44791381D01*
X73541000Y-44791381D01*
X73683858Y-44839000D01*
X73779096Y-44934238D01*
X73826715Y-45029476D01*
X73874334Y-45219952D01*
X73874334Y-45362810D01*
X73826715Y-45553286D01*
X73779096Y-45648524D01*
X73683858Y-45743762D01*
X73541000Y-45791381D01*
X73302905Y-45791381D01*
X74207667Y-44791381D02*
X74826715Y-44791381D01*
X74493381Y-45172333D01*
X74636239Y-45172333D01*
X74731477Y-45219952D01*
X74779096Y-45267571D01*
X74826715Y-45362810D01*
X74826715Y-45600905D01*
X74779096Y-45696143D01*
X74731477Y-45743762D01*
X74636239Y-45791381D01*
X74350524Y-45791381D01*
X74255286Y-45743762D01*
X74207667Y-45696143D01*
X73302905Y-43251381D02*
X73302905Y-42251381D01*
X73541000Y-42251381D01*
X73683858Y-42299000D01*
X73779096Y-42394238D01*
X73826715Y-42489476D01*
X73874334Y-42679952D01*
X73874334Y-42822810D01*
X73826715Y-43013286D01*
X73779096Y-43108524D01*
X73683858Y-43203762D01*
X73541000Y-43251381D01*
X73302905Y-43251381D01*
X74255286Y-42346619D02*
X74302905Y-42299000D01*
X74398143Y-42251381D01*
X74636239Y-42251381D01*
X74731477Y-42299000D01*
X74779096Y-42346619D01*
X74826715Y-42441857D01*
X74826715Y-42537095D01*
X74779096Y-42679952D01*
X74207667Y-43251381D01*
X74826715Y-43251381D01*
X73302905Y-40711381D02*
X73302905Y-39711381D01*
X73541000Y-39711381D01*
X73683858Y-39759000D01*
X73779096Y-39854238D01*
X73826715Y-39949476D01*
X73874334Y-40139952D01*
X73874334Y-40282810D01*
X73826715Y-40473286D01*
X73779096Y-40568524D01*
X73683858Y-40663762D01*
X73541000Y-40711381D01*
X73302905Y-40711381D01*
X74826715Y-40711381D02*
X74255286Y-40711381D01*
X74541000Y-40711381D02*
X74541000Y-39711381D01*
X74445762Y-39854238D01*
X74350524Y-39949476D01*
X74255286Y-39997095D01*
X73302905Y-38171381D02*
X73302905Y-37171381D01*
X73541000Y-37171381D01*
X73683858Y-37219000D01*
X73779096Y-37314238D01*
X73826715Y-37409476D01*
X73874334Y-37599952D01*
X73874334Y-37742810D01*
X73826715Y-37933286D01*
X73779096Y-38028524D01*
X73683858Y-38123762D01*
X73541000Y-38171381D01*
X73302905Y-38171381D01*
X74493381Y-37171381D02*
X74588620Y-37171381D01*
X74683858Y-37219000D01*
X74731477Y-37266619D01*
X74779096Y-37361857D01*
X74826715Y-37552333D01*
X74826715Y-37790429D01*
X74779096Y-37980905D01*
X74731477Y-38076143D01*
X74683858Y-38123762D01*
X74588620Y-38171381D01*
X74493381Y-38171381D01*
X74398143Y-38123762D01*
X74350524Y-38076143D01*
X74302905Y-37980905D01*
X74255286Y-37790429D01*
X74255286Y-37552333D01*
X74302905Y-37361857D01*
X74350524Y-37266619D01*
X74398143Y-37219000D01*
X74493381Y-37171381D01*
X85326667Y-40616381D02*
X85326667Y-41330667D01*
X85279047Y-41473524D01*
X85183809Y-41568762D01*
X85040952Y-41616381D01*
X84945714Y-41616381D01*
X85755238Y-40711619D02*
X85802857Y-40664000D01*
X85898095Y-40616381D01*
X86136191Y-40616381D01*
X86231429Y-40664000D01*
X86279048Y-40711619D01*
X86326667Y-40806857D01*
X86326667Y-40902095D01*
X86279048Y-41044952D01*
X85707619Y-41616381D01*
X86326667Y-41616381D01*
X50903381Y-77992333D02*
X51617667Y-77992333D01*
X51760524Y-78039953D01*
X51855762Y-78135191D01*
X51903381Y-78278048D01*
X51903381Y-78373286D01*
X51903381Y-76992333D02*
X51903381Y-77563762D01*
X51903381Y-77278048D02*
X50903381Y-77278048D01*
X51046238Y-77373286D01*
X51141476Y-77468524D01*
X51189095Y-77563762D01*
X83637381Y-31894333D02*
X84351667Y-31894333D01*
X84494524Y-31941953D01*
X84589762Y-32037191D01*
X84637381Y-32180048D01*
X84637381Y-32275286D01*
X83970714Y-30989571D02*
X84637381Y-30989571D01*
X83589762Y-31227667D02*
X84304048Y-31465762D01*
X84304048Y-30846714D01*
M02*
