M48
;DRILL file {KiCad 4.0.6} date 05/17/17 20:45:12
;FORMAT={-:-/ absolute / metric / decimal}
FMAT,2
METRIC,TZ
T1C0.300
T2C0.330
T3C0.762
T4C1.000
T5C3.200
%
G90
G05
M71
T1
X42.545Y-42.672
X45.339Y-35.433
X59.182Y-61.468
X60.325Y-69.342
X81.026Y-40.513
T2
X60.071Y-66.675
X61.214Y-47.879
X78.232Y-43.307
X79.121Y-57.912
T3
X48.641Y-37.719
X48.641Y-40.259
X48.641Y-42.799
X48.641Y-45.339
X48.641Y-47.879
X48.641Y-50.419
X48.641Y-52.959
X48.641Y-55.499
X48.641Y-58.039
X48.641Y-60.579
X48.641Y-63.119
X48.641Y-65.659
X48.641Y-68.199
X48.641Y-70.739
X48.641Y-73.279
X76.581Y-37.719
X76.581Y-40.259
X76.581Y-42.799
X76.581Y-45.339
X76.581Y-47.879
X76.581Y-50.419
X76.581Y-52.959
X76.581Y-55.499
X76.581Y-58.039
X76.581Y-60.579
X76.581Y-63.119
X76.581Y-65.659
X76.581Y-68.199
X76.581Y-70.739
X76.581Y-73.279
T4
X44.831Y-48.133
X44.831Y-50.673
X44.831Y-53.213
X44.831Y-55.753
X44.831Y-58.293
X53.721Y-73.279
X56.261Y-73.279
X58.801Y-73.279
X61.341Y-73.279
X63.881Y-73.279
X66.421Y-73.279
X68.961Y-73.279
X71.501Y-73.279
X81.28Y-43.434
X81.28Y-45.974
X81.28Y-48.514
X81.28Y-51.054
X81.28Y-53.594
X81.28Y-56.134
X81.28Y-58.674
X81.28Y-61.214
X81.28Y-63.754
X81.28Y-66.294
X81.915Y-35.941
T5
X43.434Y-38.481
X43.434Y-71.755
X65.659Y-38.989
X80.518Y-71.755
T0
M30
