G04 #@! TF.FileFunction,Legend,Bot*
%FSLAX46Y46*%
G04 Gerber Fmt 4.6, Leading zero omitted, Abs format (unit mm)*
G04 Created by KiCad (PCBNEW 4.0.6) date 05/17/17 20:45:08*
%MOMM*%
%LPD*%
G01*
G04 APERTURE LIST*
%ADD10C,0.101600*%
%ADD11C,0.300000*%
G04 APERTURE END LIST*
D10*
D11*
X72478429Y-69905714D02*
X73192714Y-70405714D01*
X72478429Y-70762857D02*
X73978429Y-70762857D01*
X73978429Y-70191429D01*
X73907000Y-70048571D01*
X73835571Y-69977143D01*
X73692714Y-69905714D01*
X73478429Y-69905714D01*
X73335571Y-69977143D01*
X73264143Y-70048571D01*
X73192714Y-70191429D01*
X73192714Y-70762857D01*
X73478429Y-69477143D02*
X73478429Y-68905714D01*
X72478429Y-69262857D02*
X73764143Y-69262857D01*
X73907000Y-69191429D01*
X73978429Y-69048571D01*
X73978429Y-68905714D01*
X72478429Y-68405714D02*
X73478429Y-68405714D01*
X73978429Y-68405714D02*
X73907000Y-68477143D01*
X73835571Y-68405714D01*
X73907000Y-68334286D01*
X73978429Y-68405714D01*
X73835571Y-68405714D01*
X72478429Y-67048571D02*
X73978429Y-67048571D01*
X72549857Y-67048571D02*
X72478429Y-67191428D01*
X72478429Y-67477142D01*
X72549857Y-67620000D01*
X72621286Y-67691428D01*
X72764143Y-67762857D01*
X73192714Y-67762857D01*
X73335571Y-67691428D01*
X73407000Y-67620000D01*
X73478429Y-67477142D01*
X73478429Y-67191428D01*
X73407000Y-67048571D01*
X72549857Y-66405714D02*
X72478429Y-66191428D01*
X72478429Y-65834285D01*
X72549857Y-65691428D01*
X72621286Y-65619999D01*
X72764143Y-65548571D01*
X72907000Y-65548571D01*
X73049857Y-65619999D01*
X73121286Y-65691428D01*
X73192714Y-65834285D01*
X73264143Y-66119999D01*
X73335571Y-66262857D01*
X73407000Y-66334285D01*
X73549857Y-66405714D01*
X73692714Y-66405714D01*
X73835571Y-66334285D01*
X73907000Y-66262857D01*
X73978429Y-66119999D01*
X73978429Y-65762857D01*
X73907000Y-65548571D01*
X72478429Y-64905714D02*
X73978429Y-64905714D01*
X72478429Y-64262857D02*
X73264143Y-64262857D01*
X73407000Y-64334286D01*
X73478429Y-64477143D01*
X73478429Y-64691428D01*
X73407000Y-64834286D01*
X73335571Y-64905714D01*
X72549857Y-62977143D02*
X72478429Y-63120000D01*
X72478429Y-63405714D01*
X72549857Y-63548571D01*
X72692714Y-63620000D01*
X73264143Y-63620000D01*
X73407000Y-63548571D01*
X73478429Y-63405714D01*
X73478429Y-63120000D01*
X73407000Y-62977143D01*
X73264143Y-62905714D01*
X73121286Y-62905714D01*
X72978429Y-63620000D01*
X72478429Y-62048571D02*
X72549857Y-62191429D01*
X72692714Y-62262857D01*
X73978429Y-62262857D01*
X73478429Y-61691429D02*
X73478429Y-61120000D01*
X72478429Y-61477143D02*
X73764143Y-61477143D01*
X73907000Y-61405715D01*
X73978429Y-61262857D01*
X73978429Y-61120000D01*
X70928429Y-70120000D02*
X69714143Y-70120000D01*
X69571286Y-70191429D01*
X69499857Y-70262857D01*
X69428429Y-70405714D01*
X69428429Y-70620000D01*
X69499857Y-70762857D01*
X69999857Y-70120000D02*
X69928429Y-70262857D01*
X69928429Y-70548571D01*
X69999857Y-70691429D01*
X70071286Y-70762857D01*
X70214143Y-70834286D01*
X70642714Y-70834286D01*
X70785571Y-70762857D01*
X70857000Y-70691429D01*
X70928429Y-70548571D01*
X70928429Y-70262857D01*
X70857000Y-70120000D01*
X69928429Y-69405714D02*
X70928429Y-69405714D01*
X71428429Y-69405714D02*
X71357000Y-69477143D01*
X71285571Y-69405714D01*
X71357000Y-69334286D01*
X71428429Y-69405714D01*
X71285571Y-69405714D01*
X70928429Y-68905714D02*
X70928429Y-68334285D01*
X71428429Y-68691428D02*
X70142714Y-68691428D01*
X69999857Y-68620000D01*
X69928429Y-68477142D01*
X69928429Y-68334285D01*
X69928429Y-67834285D02*
X71428429Y-67834285D01*
X69928429Y-67191428D02*
X70714143Y-67191428D01*
X70857000Y-67262857D01*
X70928429Y-67405714D01*
X70928429Y-67619999D01*
X70857000Y-67762857D01*
X70785571Y-67834285D01*
X70928429Y-65834285D02*
X69928429Y-65834285D01*
X70928429Y-66477142D02*
X70142714Y-66477142D01*
X69999857Y-66405714D01*
X69928429Y-66262856D01*
X69928429Y-66048571D01*
X69999857Y-65905714D01*
X70071286Y-65834285D01*
X69928429Y-65119999D02*
X71428429Y-65119999D01*
X70857000Y-65119999D02*
X70928429Y-64977142D01*
X70928429Y-64691428D01*
X70857000Y-64548571D01*
X70785571Y-64477142D01*
X70642714Y-64405713D01*
X70214143Y-64405713D01*
X70071286Y-64477142D01*
X69999857Y-64548571D01*
X69928429Y-64691428D01*
X69928429Y-64977142D01*
X69999857Y-65119999D01*
X70071286Y-63762856D02*
X69999857Y-63691428D01*
X69928429Y-63762856D01*
X69999857Y-63834285D01*
X70071286Y-63762856D01*
X69928429Y-63762856D01*
X69999857Y-62405713D02*
X69928429Y-62548570D01*
X69928429Y-62834284D01*
X69999857Y-62977142D01*
X70071286Y-63048570D01*
X70214143Y-63119999D01*
X70642714Y-63119999D01*
X70785571Y-63048570D01*
X70857000Y-62977142D01*
X70928429Y-62834284D01*
X70928429Y-62548570D01*
X70857000Y-62405713D01*
X69928429Y-61548570D02*
X69999857Y-61691428D01*
X70071286Y-61762856D01*
X70214143Y-61834285D01*
X70642714Y-61834285D01*
X70785571Y-61762856D01*
X70857000Y-61691428D01*
X70928429Y-61548570D01*
X70928429Y-61334285D01*
X70857000Y-61191428D01*
X70785571Y-61119999D01*
X70642714Y-61048570D01*
X70214143Y-61048570D01*
X70071286Y-61119999D01*
X69999857Y-61191428D01*
X69928429Y-61334285D01*
X69928429Y-61548570D01*
X69928429Y-60405713D02*
X70928429Y-60405713D01*
X70785571Y-60405713D02*
X70857000Y-60334285D01*
X70928429Y-60191427D01*
X70928429Y-59977142D01*
X70857000Y-59834285D01*
X70714143Y-59762856D01*
X69928429Y-59762856D01*
X70714143Y-59762856D02*
X70857000Y-59691427D01*
X70928429Y-59548570D01*
X70928429Y-59334285D01*
X70857000Y-59191427D01*
X70714143Y-59119999D01*
X69928429Y-59119999D01*
X71499857Y-57334285D02*
X69571286Y-58619999D01*
X71428429Y-57048570D02*
X71428429Y-56191427D01*
X69928429Y-56619998D02*
X71428429Y-56619998D01*
X69928429Y-55691427D02*
X71428429Y-55691427D01*
X69928429Y-55048570D02*
X70714143Y-55048570D01*
X70857000Y-55119999D01*
X70928429Y-55262856D01*
X70928429Y-55477141D01*
X70857000Y-55619999D01*
X70785571Y-55691427D01*
X69999857Y-53762856D02*
X69928429Y-53905713D01*
X69928429Y-54191427D01*
X69999857Y-54334284D01*
X70142714Y-54405713D01*
X70714143Y-54405713D01*
X70857000Y-54334284D01*
X70928429Y-54191427D01*
X70928429Y-53905713D01*
X70857000Y-53762856D01*
X70714143Y-53691427D01*
X70571286Y-53691427D01*
X70428429Y-54405713D01*
X69928429Y-53048570D02*
X71428429Y-53048570D01*
X69928429Y-52191427D01*
X71428429Y-52191427D01*
X69928429Y-51477141D02*
X70928429Y-51477141D01*
X71428429Y-51477141D02*
X71357000Y-51548570D01*
X71285571Y-51477141D01*
X71357000Y-51405713D01*
X71428429Y-51477141D01*
X71285571Y-51477141D01*
X70928429Y-50977141D02*
X70928429Y-50405712D01*
X71428429Y-50762855D02*
X70142714Y-50762855D01*
X69999857Y-50691427D01*
X69928429Y-50548569D01*
X69928429Y-50405712D01*
X69999857Y-49334284D02*
X69928429Y-49477141D01*
X69928429Y-49762855D01*
X69999857Y-49905712D01*
X70142714Y-49977141D01*
X70714143Y-49977141D01*
X70857000Y-49905712D01*
X70928429Y-49762855D01*
X70928429Y-49477141D01*
X70857000Y-49334284D01*
X70714143Y-49262855D01*
X70571286Y-49262855D01*
X70428429Y-49977141D01*
X69928429Y-48619998D02*
X71428429Y-48619998D01*
X70499857Y-48477141D02*
X69928429Y-48048570D01*
X70928429Y-48048570D02*
X70357000Y-48619998D01*
X71499857Y-46334284D02*
X69571286Y-47619998D01*
X69928429Y-44977140D02*
X70642714Y-45477140D01*
X69928429Y-45834283D02*
X71428429Y-45834283D01*
X71428429Y-45262855D01*
X71357000Y-45119997D01*
X71285571Y-45048569D01*
X71142714Y-44977140D01*
X70928429Y-44977140D01*
X70785571Y-45048569D01*
X70714143Y-45119997D01*
X70642714Y-45262855D01*
X70642714Y-45834283D01*
X70928429Y-44548569D02*
X70928429Y-43977140D01*
X69928429Y-44334283D02*
X71214143Y-44334283D01*
X71357000Y-44262855D01*
X71428429Y-44119997D01*
X71428429Y-43977140D01*
X69928429Y-43477140D02*
X70928429Y-43477140D01*
X71428429Y-43477140D02*
X71357000Y-43548569D01*
X71285571Y-43477140D01*
X71357000Y-43405712D01*
X71428429Y-43477140D01*
X71285571Y-43477140D01*
X69928429Y-42119997D02*
X71428429Y-42119997D01*
X69999857Y-42119997D02*
X69928429Y-42262854D01*
X69928429Y-42548568D01*
X69999857Y-42691426D01*
X70071286Y-42762854D01*
X70214143Y-42834283D01*
X70642714Y-42834283D01*
X70785571Y-42762854D01*
X70857000Y-42691426D01*
X70928429Y-42548568D01*
X70928429Y-42262854D01*
X70857000Y-42119997D01*
X69999857Y-41477140D02*
X69928429Y-41262854D01*
X69928429Y-40905711D01*
X69999857Y-40762854D01*
X70071286Y-40691425D01*
X70214143Y-40619997D01*
X70357000Y-40619997D01*
X70499857Y-40691425D01*
X70571286Y-40762854D01*
X70642714Y-40905711D01*
X70714143Y-41191425D01*
X70785571Y-41334283D01*
X70857000Y-41405711D01*
X70999857Y-41477140D01*
X71142714Y-41477140D01*
X71285571Y-41405711D01*
X71357000Y-41334283D01*
X71428429Y-41191425D01*
X71428429Y-40834283D01*
X71357000Y-40619997D01*
X69928429Y-39977140D02*
X71428429Y-39977140D01*
X69928429Y-39334283D02*
X70714143Y-39334283D01*
X70857000Y-39405712D01*
X70928429Y-39548569D01*
X70928429Y-39762854D01*
X70857000Y-39905712D01*
X70785571Y-39977140D01*
X69999857Y-38048569D02*
X69928429Y-38191426D01*
X69928429Y-38477140D01*
X69999857Y-38619997D01*
X70142714Y-38691426D01*
X70714143Y-38691426D01*
X70857000Y-38619997D01*
X70928429Y-38477140D01*
X70928429Y-38191426D01*
X70857000Y-38048569D01*
X70714143Y-37977140D01*
X70571286Y-37977140D01*
X70428429Y-38691426D01*
X69928429Y-37119997D02*
X69999857Y-37262855D01*
X70142714Y-37334283D01*
X71428429Y-37334283D01*
X70928429Y-36762855D02*
X70928429Y-36191426D01*
X69928429Y-36548569D02*
X71214143Y-36548569D01*
X71357000Y-36477141D01*
X71428429Y-36334283D01*
X71428429Y-36191426D01*
M02*
