<?xml version='1.0' encoding='UTF-8' standalone='no'?>
<!-- Created with Fritzing (http://www.fritzing.org/) -->
<svg xmlns:svg='http://www.w3.org/2000/svg' xmlns='http://www.w3.org/2000/svg' version='1.2' baseProfile='tiny' x='0in' y='0in' width='7.01806in' height='4.38971in' viewBox='0 0 505.3 316.059' >
<g partID='854109700'><g transform='translate(0,316.059)' ><g transform='matrix(0,-1,1,0,0,0)'  ><g xmlns="http://www.w3.org/2000/svg" id="breadboard">
 <g xmlns="http://www.w3.org/2000/svg">
  <g xmlns="http://www.w3.org/2000/svg" enable-background="new    ">
   <g xmlns="http://www.w3.org/2000/svg">
    <path xmlns="http://www.w3.org/2000/svg" d="M35.643,43.516c-7.668,0,-13.887,5.385,-13.887,12.025c0,6.648,6.219,12.027,13.887,12.027c7.667,0,13.886,-5.379,13.886,-12.027C49.529,48.9,43.311,43.516,35.643,43.516" fill="#999999"/>
   </g>
  </g>
 </g>
 <g xmlns="http://www.w3.org/2000/svg" id="breadboard">
  <circle xmlns="http://www.w3.org/2000/svg" r="1.98" fill="none" id="connector0pin" cx="32.029" cy="78.176"/>
  <circle xmlns="http://www.w3.org/2000/svg" r="1.98" fill="none" id="connector1pin" cx="39.255" cy="78.176"/>
 </g>
 <path xmlns="http://www.w3.org/2000/svg" d="M49.529,55.291c0,6.648,-6.219,12.027,-13.886,12.027c-7.668,0,-13.887,-5.379,-13.887,-12.027l0,0.25c0,6.648,6.219,12.027,13.887,12.027c7.667,0,13.886,-5.379,13.886,-12.027L49.529,55.291z" fill-opacity="0.2"/>
 <g xmlns="http://www.w3.org/2000/svg">
  <path xmlns="http://www.w3.org/2000/svg" d="M38.019,24.416l1.608,-2.413c0.211,-0.314,0.593,-0.491,0.984,-0.491c0.191,0,0.386,0.043,0.563,0.133l0.504,0.249c0.54,0.273,0.729,0.873,0.415,1.341l-1.601,2.401c1.677,1.229,2.744,3.063,2.744,5.112c0,3.695,-3.465,6.695,-7.731,6.695c-4.266,0,-7.731,-3,-7.731,-6.695c0,-2.031,1.048,-3.852,2.7,-5.081l-1.611,-2.417c-0.315,-0.468,-0.135,-1.076,0.414,-1.341l0.495,-0.257c0.18,-0.086,0.375,-0.128,0.568,-0.128c0.395,0,0.777,0.175,0.989,0.495l1.608,2.414c0.804,-0.245,1.667,-0.379,2.567,-0.379C36.385,24.053,37.231,24.181,38.019,24.416M35.505,7.678c-14.634,0,-26.532,10.312,-26.532,22.977c0,12.673,11.898,22.986,26.532,22.986c14.626,0,26.532,-10.313,26.532,-22.986C62.037,17.989,50.131,7.678,35.505,7.678M35.505,56.75c-16.614,0,-30.132,-11.699,-30.132,-26.095c0,-14.388,13.518,-26.095,30.132,-26.095c16.614,0,30.132,11.707,30.132,26.095C65.637,45.051,52.119,56.75,35.505,56.75M35.505,1.317c-18.711,0,-33.876,13.133,-33.876,29.337C1.629,46.859,16.794,60,35.505,60c18.712,0,33.876,-13.141,33.876,-29.345C69.381,14.451,54.217,1.317,35.505,1.317" fill="#333333"/>
  <path xmlns="http://www.w3.org/2000/svg" d="M35.505,53.641c-14.634,0,-26.532,-10.313,-26.532,-22.986c0,-12.666,11.898,-22.977,26.532,-22.977c14.626,0,26.532,10.312,26.532,22.977C62.037,43.328,50.131,53.641,35.505,53.641zM35.505,6.469c-15.399,0,-27.936,10.85,-27.936,24.186c0,13.343,12.537,24.193,27.936,24.193c15.399,0,27.937,-10.85,27.937,-24.193C63.441,17.319,50.904,6.469,35.505,6.469M35.505,55.541c-15.84,0,-28.737,-11.16,-28.737,-24.886c0,-13.718,12.897,-24.879,28.737,-24.879c15.841,0,28.737,11.162,28.737,24.879C64.242,44.381,51.346,55.541,35.505,55.541M35.505,4.56c-16.614,0,-30.132,11.707,-30.132,26.095c0,14.396,13.518,26.095,30.132,26.095c16.614,0,30.132,-11.699,30.132,-26.095C65.637,16.267,52.119,4.56,35.505,4.56z" fill="#B3B3B3"/>
  <path xmlns="http://www.w3.org/2000/svg" d="M35.505,54.848c-15.399,0,-27.936,-10.85,-27.936,-24.193c0,-13.336,12.537,-24.186,27.936,-24.186c15.399,0,27.937,10.85,27.937,24.186C63.441,43.998,50.904,54.848,35.505,54.848M35.505,5.775c-15.84,0,-28.737,11.162,-28.737,24.879c0,13.726,12.897,24.886,28.737,24.886c15.841,0,28.737,-11.16,28.737,-24.886C64.242,16.937,51.346,5.775,35.505,5.775" fill="#BCBCBC"/>
  <path xmlns="http://www.w3.org/2000/svg" d="M40.612,21.512c-0.392,0,-0.773,0.177,-0.984,0.491l-1.608,2.413c0.914,0.273,1.751,0.69,2.474,1.22l1.601,-2.401c0.314,-0.468,0.125,-1.068,-0.415,-1.341l-0.504,-0.249C40.998,21.555,40.803,21.512,40.612,21.512" fill="#424242"/>
  <path xmlns="http://www.w3.org/2000/svg" d="M30.34,21.524c-0.192,0,-0.388,0.042,-0.568,0.128l-0.495,0.257c-0.549,0.265,-0.729,0.873,-0.414,1.341l1.611,2.417c0.719,-0.535,1.552,-0.957,2.464,-1.235l-1.608,-2.414C31.117,21.699,30.735,21.524,30.34,21.524" fill="#424242"/>
  <path xmlns="http://www.w3.org/2000/svg" d="M35.505,36.75c-3.825,0,-6.93,-2.682,-6.93,-6.002c0,-3.312,3.105,-6.001,6.93,-6.001c3.826,0,6.931,2.689,6.931,6.001C42.436,34.068,39.331,36.75,35.505,36.75M35.505,24.053c-0.9,0,-1.764,0.134,-2.567,0.379c-0.912,0.279,-1.745,0.701,-2.464,1.235c-1.652,1.229,-2.7,3.05,-2.7,5.081c0,3.695,3.465,6.695,7.731,6.695c4.266,0,7.731,-3,7.731,-6.695c0,-2.049,-1.066,-3.884,-2.744,-5.112c-0.723,-0.53,-1.56,-0.947,-2.474,-1.22C37.231,24.181,36.385,24.053,35.505,24.053" fill="#333333"/>
  <path xmlns="http://www.w3.org/2000/svg" d="M35.505,36.243c-3.096,0,-5.661,-1.917,-6.228,-4.451c-0.081,-0.374,0.198,-0.74,0.639,-0.811c0.054,-0.01,0.107,-0.014,0.159,-0.014c0.371,0,0.698,0.231,0.777,0.56c0.414,1.894,2.34,3.328,4.653,3.328c1.701,0,3.186,-0.772,4.023,-1.941c0.152,-0.213,0.416,-0.331,0.685,-0.331c0.145,0,0.291,0.034,0.423,0.104c0.378,0.203,0.485,0.631,0.252,0.959C39.771,35.207,37.773,36.243,35.505,36.243M31.896,29.141c-0.362,0,-0.646,-0.097,-0.792,-0.302c-0.396,-0.53,0.225,-1.535,1.404,-2.221c0.682,-0.396,1.407,-0.601,1.971,-0.601c0.411,0,0.736,0.108,0.899,0.328c0.387,0.522,-0.306,1.474,-1.494,2.159C33.175,28.917,32.445,29.141,31.896,29.141M35.505,24.747c-3.825,0,-6.93,2.689,-6.93,6.001c0,3.32,3.105,6.002,6.93,6.002c3.826,0,6.931,-2.682,6.931,-6.002C42.436,27.436,39.331,24.747,35.505,24.747"/>
  <path xmlns="http://www.w3.org/2000/svg" d="M30.075,30.968c-0.052,0,-0.105,0.004,-0.159,0.014c-0.441,0.07,-0.72,0.437,-0.639,0.811c0.567,2.534,3.132,4.451,6.228,4.451c2.268,0,4.266,-1.037,5.382,-2.595c0.233,-0.328,0.126,-0.756,-0.252,-0.959c-0.132,-0.07,-0.278,-0.104,-0.423,-0.104c-0.269,0,-0.532,0.117,-0.685,0.331c-0.837,1.169,-2.322,1.941,-4.023,1.941c-2.313,0,-4.239,-1.435,-4.653,-3.328C30.773,31.2,30.446,30.968,30.075,30.968" fill="#303030"/>
  <path xmlns="http://www.w3.org/2000/svg" d="M34.479,26.017c-0.564,0,-1.289,0.204,-1.971,0.601c-1.179,0.686,-1.8,1.691,-1.404,2.221c0.146,0.205,0.43,0.302,0.792,0.302c0.549,0,1.279,-0.224,1.989,-0.637c1.188,-0.686,1.881,-1.637,1.494,-2.159C35.216,26.125,34.89,26.017,34.479,26.017" fill="#8F8F8F"/>
  <path xmlns="http://www.w3.org/2000/svg" d="M52.768,0L18.234,0C10.305,3.344,3.861,8.924,0,15.799l0,29.906c3.861,6.867,10.305,12.447,18.234,15.799l34.534,0c7.938,-3.352,14.381,-8.932,18.242,-15.799L71.01,15.799C67.148,8.924,60.705,3.344,52.768,0zM61.416,7.444c0.648,0,1.16,0.452,1.16,1.013c0,0.553,-0.512,1.005,-1.16,1.005c-0.639,0,-1.16,-0.452,-1.16,-1.005C60.256,7.896,60.777,7.444,61.416,7.444zM9.594,7.444c0.639,0,1.161,0.452,1.161,1.013c0,0.553,-0.522,1.005,-1.161,1.005c-0.648,0,-1.17,-0.452,-1.17,-1.005C8.424,7.896,8.946,7.444,9.594,7.444zM9.594,54.35c-0.648,0,-1.17,-0.451,-1.17,-1.014c0,-0.553,0.522,-1.006,1.17,-1.006c0.639,0,1.161,0.453,1.161,1.006C10.755,53.898,10.233,54.35,9.594,54.35zM61.416,54.35c-0.639,0,-1.16,-0.451,-1.16,-1.014c0,-0.553,0.521,-1.006,1.16,-1.006c0.648,0,1.16,0.453,1.16,1.006C62.576,53.898,62.064,54.35,61.416,54.35zM35.505,60C16.794,60,1.629,46.859,1.629,30.655c0,-16.204,15.165,-29.337,33.876,-29.337c18.712,0,33.876,13.133,33.876,29.337C69.381,46.859,54.217,60,35.505,60z" fill="#1E1E1E"/>
 </g>
 <g xmlns="http://www.w3.org/2000/svg">
  <path xmlns="http://www.w3.org/2000/svg" d="M32.029,80.17c-0.829,0,-1.5,-0.672,-1.5,-1.5l0,-2.635c0,-0.828,0.671,-1.5,1.5,-1.5s1.5,0.672,1.5,1.5l0,2.635C33.529,79.498,32.857,80.17,32.029,80.17z"/>
 </g>
 <g xmlns="http://www.w3.org/2000/svg">
  <path xmlns="http://www.w3.org/2000/svg" d="M39.256,80.17c-0.828,0,-1.5,-0.672,-1.5,-1.5l0,-2.635c0,-0.828,0.672,-1.5,1.5,-1.5s1.5,0.672,1.5,1.5l0,2.635C40.756,79.498,40.084,80.17,39.256,80.17z" fill="#FF0000"/>
 </g>
 <rect xmlns="http://www.w3.org/2000/svg" height="0.277" x="27.143" width="17" fill="#533E29" y="65.674"/>
 <path xmlns="http://www.w3.org/2000/svg" d="M27.143,61.705l0,3.969l17,0l0,-3.969L27.143,61.705zM32.029,65.045c-0.659,0,-1.193,-0.508,-1.193,-1.133c0,-0.629,0.534,-1.137,1.193,-1.137s1.193,0.508,1.193,1.137C33.222,64.537,32.688,65.045,32.029,65.045zM39.256,65.045c-0.658,0,-1.193,-0.508,-1.193,-1.133c0,-0.629,0.535,-1.137,1.193,-1.137s1.193,0.508,1.193,1.137C40.45,64.537,39.915,65.045,39.256,65.045z" fill="#A67C52"/>
 <path xmlns="http://www.w3.org/2000/svg" d="M0,16.353C3.861,9.478,10.305,3.897,18.234,0.553l34.534,0c7.938,3.344,14.381,8.924,18.242,15.799l0,-0.553C67.148,8.924,60.705,3.344,52.768,0L18.234,0C10.305,3.344,3.861,8.924,0,15.799L0,16.353z" fill="#FFFFFF" opacity="0.2"/>
 <path xmlns="http://www.w3.org/2000/svg" d="M71.01,46.83c-3.861,6.867,-10.305,12.447,-18.242,15.799L18.234,62.629C10.305,59.277,3.861,53.697,0,46.83l0,-1.125c3.861,6.867,10.305,12.447,18.234,15.799l34.534,0c7.938,-3.352,14.381,-8.932,18.242,-15.799L71.01,46.83z"/>
 <path xmlns="http://www.w3.org/2000/svg" d="M69.381,31.033c0,16.204,-15.164,29.346,-33.876,29.346c-18.711,0,-33.876,-13.143,-33.876,-29.346l0,-0.378C1.629,46.859,16.794,60,35.505,60c18.712,0,33.876,-13.141,33.876,-29.345L69.381,31.033z"/>
 <path xmlns="http://www.w3.org/2000/svg" d="M5.373,30.968c0,-14.388,13.518,-26.095,30.132,-26.095c16.614,0,30.132,11.707,30.132,26.095l0,-0.313c0,-14.388,-13.518,-26.095,-30.132,-26.095c-16.614,0,-30.132,11.707,-30.132,26.095L5.373,30.968z" fill="#FFFFFF" opacity="0.2"/>
 <path xmlns="http://www.w3.org/2000/svg" d="M8.973,30.155c0,12.673,11.898,22.986,26.532,22.986c14.626,0,26.532,-10.313,26.532,-22.986l0,0.5c0,12.673,-11.906,22.986,-26.532,22.986c-14.634,0,-26.532,-10.313,-26.532,-22.986L8.973,30.155z" fill="#FFFFFF" opacity="0.2"/>
 <path xmlns="http://www.w3.org/2000/svg" d="M62.037,31.153c0,-12.666,-11.906,-22.977,-26.532,-22.977c-14.634,0,-26.532,10.312,-26.532,22.977l0,-0.499c0,-12.666,11.898,-22.977,26.532,-22.977c14.626,0,26.532,10.312,26.532,22.977" opacity="0.2"/>
 <path xmlns="http://www.w3.org/2000/svg" d="M65.637,31.215c0,14.396,-13.518,26.095,-30.132,26.095c-16.614,0,-30.132,-11.699,-30.132,-26.095l0,-0.561c0,14.396,13.518,26.095,30.132,26.095c16.614,0,30.132,-11.699,30.132,-26.095L65.637,31.215z" fill-opacity="0.2"/>
 <path xmlns="http://www.w3.org/2000/svg" d="M32.029,62.787c-0.691,0,-1.252,0.561,-1.252,1.252s0.561,1.252,1.252,1.252s1.252,-0.561,1.252,-1.252S32.72,62.787,32.029,62.787zM32.029,65.232c-0.659,0,-1.193,-0.535,-1.193,-1.193s0.534,-1.193,1.193,-1.193s1.193,0.535,1.193,1.193S32.688,65.232,32.029,65.232z" fill="#CCCCCC"/>
 <path xmlns="http://www.w3.org/2000/svg" d="M39.256,62.787c-0.691,0,-1.253,0.561,-1.253,1.252s0.562,1.252,1.253,1.252s1.253,-0.561,1.253,-1.252S39.948,62.787,39.256,62.787zM39.256,65.232c-0.658,0,-1.193,-0.535,-1.193,-1.193s0.535,-1.193,1.193,-1.193s1.193,0.535,1.193,1.193S39.915,65.232,39.256,65.232z" fill="#CCCCCC"/>
 <path xmlns="http://www.w3.org/2000/svg" d="M33.222,64.039c-0.001,-0.658,-0.535,-1.193,-1.193,-1.193s-1.192,0.535,-1.193,1.193l-0.007,0l0,11.998l2.4,0L33.229,64.039L33.222,64.039z"/>
 <path xmlns="http://www.w3.org/2000/svg" d="M40.45,64.039c-0.001,-0.658,-0.535,-1.193,-1.193,-1.193s-1.192,0.535,-1.193,1.193l-0.007,0l0,11.998l2.4,0L40.457,64.039L40.45,64.039z" fill="#FF0000"/>
 <polygon xmlns="http://www.w3.org/2000/svg" opacity="0.2" points="46.34,63.207,24.947,63.207,24.421,62.629,46.865,62.629"/>
</g>
</g></g></g><g partID='854109750'><line stroke-linecap='round' stroke='#999999' x1='116.34' y1='270.341' x2='116.34' y2='276.804' stroke-width='3.2' /><line stroke-linecap='round' stroke='#ffffff' x1='116.34' y1='270.341' x2='116.34' y2='276.804' stroke-width='1.6' /></g><g partID='854111160'><line stroke-linecap='round' stroke='#999999' x1='116.34' y1='276.804' x2='78.1762' y2='276.804' stroke-width='3.2' /><line stroke-linecap='round' stroke='#ffffff' x1='116.34' y1='276.804' x2='78.1762' y2='276.804' stroke-width='1.6' /></g><g partID='854111090'><line stroke-linecap='round' stroke='#000000' x1='126.261' y1='284.03' x2='78.1762' y2='284.03' stroke-width='3.2' /><line stroke-linecap='round' stroke='#404040' x1='126.261' y1='284.03' x2='78.1762' y2='284.03' stroke-width='1.6' /></g><g partID='854109820'><line stroke-linecap='round' stroke='#000000' x1='126.261' y1='270.341' x2='126.261' y2='284.03' stroke-width='3.2' /><line stroke-linecap='round' stroke='#404040' x1='126.261' y1='270.341' x2='126.261' y2='284.03' stroke-width='1.6' /></g><g partID='854118000'><line stroke-linecap='round' stroke='#846521' x1='121.376' y1='176.004' x2='150.176' y2='176.004' stroke-width='3.2' /><line stroke-linecap='round' stroke='#a37911' x1='121.376' y1='176.004' x2='150.176' y2='176.004' stroke-width='1.6' /></g><g partID='854118230'><line stroke-linecap='round' stroke='#846521' x1='150.176' y1='176.004' x2='150.176' y2='75.2039' stroke-width='3.2' /><line stroke-linecap='round' stroke='#a37911' x1='150.176' y1='176.004' x2='150.176' y2='75.2039' stroke-width='1.6' /></g><g partID='854110070'><line stroke-linecap='round' stroke='#846521' x1='150.176' y1='75.2039' x2='121.376' y2='75.203' stroke-width='3.2' /><line stroke-linecap='round' stroke='#a37911' x1='150.176' y1='75.2039' x2='121.376' y2='75.203' stroke-width='1.6' /></g><g partID='854110000'><line stroke-linecap='round' stroke='#846521' x1='121.376' y1='212.004' x2='121.376' y2='176.004' stroke-width='3.2' /><line stroke-linecap='round' stroke='#a37911' x1='121.376' y1='212.004' x2='121.376' y2='176.004' stroke-width='1.6' /></g><g partID='854110140'><line stroke-linecap='round' stroke='#999999' x1='121.376' y1='53.603' x2='236.576' y2='53.6039' stroke-width='3.2' /><line stroke-linecap='round' stroke='#ffffff' x1='121.376' y1='53.603' x2='236.576' y2='53.6039' stroke-width='1.6' /></g><g partID='854110490'><line stroke-linecap='round' stroke='#999999' x1='236.576' y1='53.6039' x2='237.968' y2='183.204' stroke-width='3.2' /><line stroke-linecap='round' stroke='#ffffff' x1='236.576' y1='53.6039' x2='237.968' y2='183.204' stroke-width='1.6' /></g><g partID='854110280'><line stroke-linecap='round' stroke='#666666' x1='243.776' y1='46.4039' x2='244.97' y2='183.204' stroke-width='3.2' /><line stroke-linecap='round' stroke='#999999' x1='243.776' y1='46.4039' x2='244.97' y2='183.204' stroke-width='1.6' /></g><g partID='854110210'><line stroke-linecap='round' stroke='#666666' x1='121.376' y1='46.403' x2='243.776' y2='46.4039' stroke-width='3.2' /><line stroke-linecap='round' stroke='#999999' x1='121.376' y1='46.403' x2='243.776' y2='46.4039' stroke-width='1.6' /></g><g partID='854110420'><line stroke-linecap='round' stroke='#dc00dc' x1='286.976' y1='60.8039' x2='286.976' y2='183.204' stroke-width='3.2' /><line stroke-linecap='round' stroke='#fa50e6' x1='286.976' y1='60.8039' x2='286.976' y2='183.204' stroke-width='1.6' /></g><g partID='854110350'><line stroke-linecap='round' stroke='#dc00dc' x1='121.376' y1='60.803' x2='286.976' y2='60.8039' stroke-width='3.2' /><line stroke-linecap='round' stroke='#fa50e6' x1='121.376' y1='60.803' x2='286.976' y2='60.8039' stroke-width='1.6' /></g><g partID='854111020'><line stroke-linecap='round' stroke='#000000' x1='27.7762' y1='140.004' x2='27.7762' y2='212.004' stroke-width='3.2' /><line stroke-linecap='round' stroke='#404040' x1='27.7762' y1='140.004' x2='27.7762' y2='212.004' stroke-width='1.6' /></g><g partID='854110560'><line stroke-linecap='round' stroke='#000000' x1='56.8022' y1='140.236' x2='27.7762' y2='140.004' stroke-width='3.2' /><line stroke-linecap='round' stroke='#404040' x1='56.8022' y1='140.236' x2='27.7762' y2='140.004' stroke-width='1.6' /></g><g partID='854110950'><line stroke-linecap='round' stroke='#000000' x1='27.7762' y1='212.004' x2='106.976' y2='212.004' stroke-width='3.2' /><line stroke-linecap='round' stroke='#404040' x1='27.7762' y1='212.004' x2='106.976' y2='212.004' stroke-width='1.6' /></g><g partID='854110840'><line stroke-linecap='round' stroke='#8c0000' x1='114.176' y1='176.004' x2='114.176' y2='212.004' stroke-width='3.2' /><line stroke-linecap='round' stroke='#cc1414' x1='114.176' y1='176.004' x2='114.176' y2='212.004' stroke-width='1.6' /></g><g partID='854110770'><line stroke-linecap='round' stroke='#8c0000' x1='13.3762' y1='60.8039' x2='13.3762' y2='176.004' stroke-width='3.2' /><line stroke-linecap='round' stroke='#cc1414' x1='13.3762' y1='60.8039' x2='13.3762' y2='176.004' stroke-width='1.6' /></g><g partID='854110700'><line stroke-linecap='round' stroke='#8c0000' x1='13.3762' y1='176.004' x2='114.176' y2='176.004' stroke-width='3.2' /><line stroke-linecap='round' stroke='#cc1414' x1='13.3762' y1='176.004' x2='114.176' y2='176.004' stroke-width='1.6' /></g><g partID='854110630'><line stroke-linecap='round' stroke='#8c0000' x1='56.8022' y1='61.033' x2='13.3762' y2='60.8039' stroke-width='3.2' /><line stroke-linecap='round' stroke='#cc1414' x1='56.8022' y1='61.033' x2='13.3762' y2='60.8039' stroke-width='1.6' /></g><g partID='854117930'><line stroke-linecap='round' stroke='#00a0c6' x1='258.176' y1='68.0039' x2='258.972' y2='183.204' stroke-width='3.2' /><line stroke-linecap='round' stroke='#33ffc5' x1='258.176' y1='68.0039' x2='258.972' y2='183.204' stroke-width='1.6' /></g><g partID='854111230'><line stroke-linecap='round' stroke='#00a0c6' x1='121.376' y1='68.004' x2='258.176' y2='68.0039' stroke-width='3.2' /><line stroke-linecap='round' stroke='#33ffc5' x1='121.376' y1='68.004' x2='258.176' y2='68.0039' stroke-width='1.6' /></g><g partID='854115300'><line stroke-linecap='round' stroke='#ad6a38' x1='251.971' y1='168.804' x2='251.971' y2='183.204' stroke-width='3.2' /><line stroke-linecap='round' stroke='#ef6100' x1='251.971' y1='168.804' x2='251.971' y2='183.204' stroke-width='1.6' /></g><g partID='854115230'><line stroke-linecap='round' stroke='#ad6a38' x1='42.1762' y1='132.804' x2='42.1762' y2='168.804' stroke-width='3.2' /><line stroke-linecap='round' stroke='#ef6100' x1='42.1762' y1='132.804' x2='42.1762' y2='168.804' stroke-width='1.6' /></g><g partID='854111300'><line stroke-linecap='round' stroke='#ad6a38' x1='56.8022' y1='133.032' x2='42.1762' y2='132.804' stroke-width='3.2' /><line stroke-linecap='round' stroke='#ef6100' x1='56.8022' y1='133.032' x2='42.1762' y2='132.804' stroke-width='1.6' /></g><g partID='854115160'><line stroke-linecap='round' stroke='#ad6a38' x1='42.1762' y1='168.804' x2='251.971' y2='168.804' stroke-width='3.2' /><line stroke-linecap='round' stroke='#ef6100' x1='42.1762' y1='168.804' x2='251.971' y2='168.804' stroke-width='1.6' /></g><g partID='854111450'><line stroke-linecap='round' stroke='#1b5bb3' x1='226.284' y1='211.011' x2='135.776' y2='212.004' stroke-width='3.2' /><line stroke-linecap='round' stroke='#418dd9' x1='226.284' y1='211.011' x2='135.776' y2='212.004' stroke-width='1.6' /></g><g partID='854111520'><line stroke-linecap='round' stroke='#d6d63a' x1='121.376' y1='96.8039' x2='265.376' y2='96.8039' stroke-width='3.2' /><line stroke-linecap='round' stroke='#fff800' x1='121.376' y1='96.8039' x2='265.376' y2='96.8039' stroke-width='1.6' /></g><g partID='854116760'><line stroke-linecap='round' stroke='#d6d63a' x1='265.376' y1='96.8039' x2='265.973' y2='183.204' stroke-width='3.2' /><line stroke-linecap='round' stroke='#fff800' x1='265.376' y1='96.8039' x2='265.973' y2='183.204' stroke-width='1.6' /></g><g partID='854116510'><line stroke-linecap='round' stroke='#00a527' x1='279.776' y1='104.004' x2='279.975' y2='183.204' stroke-width='3.2' /><line stroke-linecap='round' stroke='#25cc35' x1='279.776' y1='104.004' x2='279.975' y2='183.204' stroke-width='1.6' /></g><g partID='854111590'><line stroke-linecap='round' stroke='#00a527' x1='121.376' y1='104.003' x2='279.776' y2='104.004' stroke-width='3.2' /><line stroke-linecap='round' stroke='#25cc35' x1='121.376' y1='104.003' x2='279.776' y2='104.004' stroke-width='1.6' /></g><g partID='854115970'><line stroke-linecap='round' stroke='#6c2710' x1='272.576' y1='111.204' x2='272.974' y2='183.204' stroke-width='3.2' /><line stroke-linecap='round' stroke='#8c3b00' x1='272.576' y1='111.204' x2='272.974' y2='183.204' stroke-width='1.6' /></g><g partID='854111740'><line stroke-linecap='round' stroke='#6c2710' x1='121.376' y1='111.202' x2='272.576' y2='111.204' stroke-width='3.2' /><line stroke-linecap='round' stroke='#8c3b00' x1='121.376' y1='111.202' x2='272.576' y2='111.204' stroke-width='1.6' /></g><g partID='854116370'><line stroke-linecap='round' stroke='#000000' x1='42.1762' y1='53.6039' x2='42.1762' y2='10.4039' stroke-width='3.2' /><line stroke-linecap='round' stroke='#404040' x1='42.1762' y1='53.6039' x2='42.1762' y2='10.4039' stroke-width='1.6' /></g><g partID='854116440'><line stroke-linecap='round' stroke='#000000' x1='42.1762' y1='10.4039' x2='294.176' y2='10.4039' stroke-width='3.2' /><line stroke-linecap='round' stroke='#404040' x1='42.1762' y1='10.4039' x2='294.176' y2='10.4039' stroke-width='1.6' /></g><g partID='854116300'><line stroke-linecap='round' stroke='#000000' x1='294.176' y1='10.4039' x2='293.977' y2='183.204' stroke-width='3.2' /><line stroke-linecap='round' stroke='#404040' x1='294.176' y1='10.4039' x2='293.977' y2='183.204' stroke-width='1.6' /></g><g partID='854111970'><line stroke-linecap='round' stroke='#000000' x1='56.8022' y1='53.833' x2='42.1762' y2='53.6039' stroke-width='3.2' /><line stroke-linecap='round' stroke='#404040' x1='56.8022' y1='53.833' x2='42.1762' y2='53.6039' stroke-width='1.6' /></g><g partID='854114510'><line stroke-linecap='round' stroke='#8c0000' x1='34.9762' y1='3.2039' x2='301.376' y2='3.2039' stroke-width='3.2' /><line stroke-linecap='round' stroke='#cc1414' x1='34.9762' y1='3.2039' x2='301.376' y2='3.2039' stroke-width='1.6' /></g><g partID='854114620'><line stroke-linecap='round' stroke='#8c0000' x1='34.9762' y1='60.8039' x2='34.9762' y2='3.2039' stroke-width='3.2' /><line stroke-linecap='round' stroke='#cc1414' x1='34.9762' y1='60.8039' x2='34.9762' y2='3.2039' stroke-width='1.6' /></g><g partID='854114400'><line stroke-linecap='round' stroke='#8c0000' x1='301.376' y1='3.2039' x2='300.978' y2='183.204' stroke-width='3.2' /><line stroke-linecap='round' stroke='#cc1414' x1='301.376' y1='3.2039' x2='300.978' y2='183.204' stroke-width='1.6' /></g><g partID='854112040'><line stroke-linecap='round' stroke='#8c0000' x1='56.8022' y1='61.033' x2='34.9762' y2='60.8039' stroke-width='3.2' /><line stroke-linecap='round' stroke='#cc1414' x1='56.8022' y1='61.033' x2='34.9762' y2='60.8039' stroke-width='1.6' /></g><g partID='854115900'><line stroke-linecap='round' stroke='#7a3a73' x1='351.776' y1='147.204' x2='351.776' y2='132.804' stroke-width='3.2' /><line stroke-linecap='round' stroke='#ab58a2' x1='351.776' y1='147.204' x2='351.776' y2='132.804' stroke-width='1.6' /></g><g partID='854115830'><line stroke-linecap='round' stroke='#7a3a73' x1='351.776' y1='132.804' x2='394.976' y2='132.804' stroke-width='3.2' /><line stroke-linecap='round' stroke='#ab58a2' x1='351.776' y1='132.804' x2='394.976' y2='132.804' stroke-width='1.6' /></g><g partID='854112820'><line stroke-linecap='round' stroke='#7a3a73' x1='121.376' y1='147.202' x2='351.776' y2='147.204' stroke-width='3.2' /><line stroke-linecap='round' stroke='#ab58a2' x1='121.376' y1='147.202' x2='351.776' y2='147.204' stroke-width='1.6' /></g><g partID='854115600'><line stroke-linecap='round' stroke='#000000' x1='344.576' y1='118.404' x2='394.976' y2='118.404' stroke-width='3.2' /><line stroke-linecap='round' stroke='#404040' x1='344.576' y1='118.404' x2='394.976' y2='118.404' stroke-width='1.6' /></g><g partID='854115370'><line stroke-linecap='round' stroke='#000000' x1='344.576' y1='140.004' x2='344.576' y2='118.404' stroke-width='3.2' /><line stroke-linecap='round' stroke='#404040' x1='344.576' y1='140.004' x2='344.576' y2='118.404' stroke-width='1.6' /></g><g partID='854112890'><line stroke-linecap='round' stroke='#000000' x1='121.376' y1='140.004' x2='344.576' y2='140.004' stroke-width='3.2' /><line stroke-linecap='round' stroke='#404040' x1='121.376' y1='140.004' x2='344.576' y2='140.004' stroke-width='1.6' /></g><g partID='854113000'><line stroke-linecap='round' stroke='#00a527' x1='121.376' y1='104.003' x2='394.976' y2='104.004' stroke-width='3.2' /><line stroke-linecap='round' stroke='#25cc35' x1='121.376' y1='104.003' x2='394.976' y2='104.004' stroke-width='1.6' /></g><g partID='854116190'><line stroke-linecap='round' stroke='#6c2710' x1='330.176' y1='96.8039' x2='394.976' y2='96.8039' stroke-width='3.2' /><line stroke-linecap='round' stroke='#8c3b00' x1='330.176' y1='96.8039' x2='394.976' y2='96.8039' stroke-width='1.6' /></g><g partID='854116080'><line stroke-linecap='round' stroke='#6c2710' x1='330.176' y1='111.204' x2='330.176' y2='96.8039' stroke-width='3.2' /><line stroke-linecap='round' stroke='#8c3b00' x1='330.176' y1='111.204' x2='330.176' y2='96.8039' stroke-width='1.6' /></g><g partID='854113110'><line stroke-linecap='round' stroke='#6c2710' x1='121.376' y1='111.202' x2='330.176' y2='111.204' stroke-width='3.2' /><line stroke-linecap='round' stroke='#8c3b00' x1='121.376' y1='111.202' x2='330.176' y2='111.204' stroke-width='1.6' /></g><g partID='854117090'><line stroke-linecap='round' stroke='#d6d63a' x1='322.976' y1='89.6039' x2='394.976' y2='89.6039' stroke-width='3.2' /><line stroke-linecap='round' stroke='#fff800' x1='322.976' y1='89.6039' x2='394.976' y2='89.6039' stroke-width='1.6' /></g><g partID='854117780'><line stroke-linecap='round' stroke='#d6d63a' x1='322.976' y1='96.8039' x2='322.976' y2='89.6039' stroke-width='3.2' /><line stroke-linecap='round' stroke='#fff800' x1='322.976' y1='96.8039' x2='322.976' y2='89.6039' stroke-width='1.6' /></g><g partID='854116870'><line stroke-linecap='round' stroke='#d6d63a' x1='265.376' y1='96.8039' x2='322.976' y2='96.8039' stroke-width='3.2' /><line stroke-linecap='round' stroke='#fff800' x1='265.376' y1='96.8039' x2='322.976' y2='96.8039' stroke-width='1.6' /></g><g partID='854113220'><line stroke-linecap='round' stroke='#d6d63a' x1='121.376' y1='96.8039' x2='265.376' y2='96.8039' stroke-width='3.2' /><line stroke-linecap='round' stroke='#fff800' x1='121.376' y1='96.8039' x2='265.376' y2='96.8039' stroke-width='1.6' /></g><g partID='854116690'><line stroke-linecap='round' stroke='#1b5bb3' x1='337.376' y1='82.4039' x2='337.376' y2='118.404' stroke-width='3.2' /><line stroke-linecap='round' stroke='white' x1='337.376' y1='82.4039' x2='337.376' y2='118.404' stroke-width='1.6' /><line stroke-linecap='round' stroke='#418dd9' x1='337.376' y1='82.4039' x2='337.376' y2='118.404' stroke-width='1.6' stroke-dasharray='8,6.4'/></g><g partID='854116620'><line stroke-linecap='round' stroke='#1b5bb3' x1='337.376' y1='118.404' x2='121.376' y2='118.404' stroke-width='3.2' /><line stroke-linecap='round' stroke='white' x1='337.376' y1='118.404' x2='121.376' y2='118.404' stroke-width='1.6' /><line stroke-linecap='round' stroke='#418dd9' x1='337.376' y1='118.404' x2='121.376' y2='118.404' stroke-width='1.6' stroke-dasharray='8,6.4'/></g><g partID='854113330'><line stroke-linecap='round' stroke='#1b5bb3' x1='394.976' y1='82.4039' x2='337.376' y2='82.4039' stroke-width='3.2' /><line stroke-linecap='round' stroke='white' x1='394.976' y1='82.4039' x2='337.376' y2='82.4039' stroke-width='1.6' /><line stroke-linecap='round' stroke='#418dd9' x1='394.976' y1='82.4039' x2='337.376' y2='82.4039' stroke-width='1.6' stroke-dasharray='8,6.4'/></g><g partID='854113940'><line stroke-linecap='round' stroke='#000000' x1='34.9762' y1='190.404' x2='128.576' y2='190.404' stroke-width='3.2' /><line stroke-linecap='round' stroke='#404040' x1='34.9762' y1='190.404' x2='128.576' y2='190.404' stroke-width='1.6' /></g><g partID='854113400'><line stroke-linecap='round' stroke='#000000' x1='56.8022' y1='140.236' x2='34.9762' y2='140.004' stroke-width='3.2' /><line stroke-linecap='round' stroke='#404040' x1='56.8022' y1='140.236' x2='34.9762' y2='140.004' stroke-width='1.6' /></g><g partID='854114170'><line stroke-linecap='round' stroke='#000000' x1='34.9762' y1='140.004' x2='34.9762' y2='190.404' stroke-width='3.2' /><line stroke-linecap='round' stroke='#404040' x1='34.9762' y1='140.004' x2='34.9762' y2='190.404' stroke-width='1.6' /></g><g partID='854113710'><line stroke-linecap='round' stroke='#000000' x1='128.576' y1='190.404' x2='128.576' y2='212.004' stroke-width='3.2' /><line stroke-linecap='round' stroke='#404040' x1='128.576' y1='190.404' x2='128.576' y2='212.004' stroke-width='1.6' /></g></svg>